Courier Prime Bold.ufo
<glyph name="percent" format="1">
  <advance width="1228"/>
  <unicode hex="0025"/>
  <outline>
    <contour>
      <point x="108" y="249" type="line" smooth="yes"/>
      <point x="75" y="218"/>
      <point x="75" y="193"/>
      <point x="130" y="134" type="curve" smooth="yes"/>
      <point x="185" y="75"/>
      <point x="210" y="75"/>
      <point x="243" y="106" type="curve" smooth="yes"/>
      <point x="1120" y="940" type="line" smooth="yes"/>
      <point x="1152" y="971"/>
      <point x="1154" y="996"/>
      <point x="1098" y="1054" type="curve" smooth="yes"/>
      <point x="1042" y="1112"/>
      <point x="1017" y="1114"/>
      <point x="985" y="1083" type="curve" smooth="yes"/>
    </contour>
    <contour>
      <point x="753" y="526"/>
      <point x="630" y="403"/>
      <point x="630" y="252" type="curve" smooth="yes"/>
      <point x="630" y="101"/>
      <point x="753" y="-22"/>
      <point x="904" y="-22" type="curve" smooth="yes"/>
      <point x="1055" y="-22"/>
      <point x="1178" y="101"/>
      <point x="1178" y="252" type="curve" smooth="yes"/>
      <point x="1178" y="403"/>
      <point x="1055" y="526"/>
      <point x="904" y="526" type="curve" smooth="yes"/>
    </contour>
    <contour>
      <point x="952" y="339"/>
      <point x="991" y="300"/>
      <point x="991" y="252" type="curve" smooth="yes"/>
      <point x="991" y="204"/>
      <point x="952" y="165"/>
      <point x="904" y="165" type="curve" smooth="yes"/>
      <point x="856" y="165"/>
      <point x="817" y="204"/>
      <point x="817" y="252" type="curve" smooth="yes"/>
      <point x="817" y="300"/>
      <point x="856" y="339"/>
      <point x="904" y="339" type="curve" smooth="yes"/>
    </contour>
    <contour>
      <point x="173" y="1209"/>
      <point x="50" y="1086"/>
      <point x="50" y="935" type="curve" smooth="yes"/>
      <point x="50" y="784"/>
      <point x="173" y="661"/>
      <point x="324" y="661" type="curve" smooth="yes"/>
      <point x="475" y="661"/>
      <point x="598" y="784"/>
      <point x="598" y="935" type="curve" smooth="yes"/>
      <point x="598" y="1086"/>
      <point x="475" y="1209"/>
      <point x="324" y="1209" type="curve" smooth="yes"/>
    </contour>
    <contour>
      <point x="372" y="1022"/>
      <point x="411" y="983"/>
      <point x="411" y="935" type="curve" smooth="yes"/>
      <point x="411" y="887"/>
      <point x="372" y="848"/>
      <point x="324" y="848" type="curve" smooth="yes"/>
      <point x="276" y="848"/>
      <point x="237" y="887"/>
      <point x="237" y="935" type="curve" smooth="yes"/>
      <point x="237" y="983"/>
      <point x="276" y="1022"/>
      <point x="324" y="1022" type="curve" smooth="yes"/>
    </contour>
  </outline>
</glyph>
<glyph name="ampersand" format="1">
  <advance width="1228"/>
  <unicode hex="0026"/>
  <outline>
    <contour>
      <point x="345" y="1209"/>
      <point x="202" y="1064"/>
      <point x="202" y="866" type="curve" smooth="yes"/>
      <point x="202" y="775"/>
      <point x="236" y="694"/>
      <point x="287" y="622" type="curve"/>
      <point x="169" y="544"/>
      <point x="107" y="448"/>
      <point x="107" y="320" type="curve" smooth="yes"/>
      <point x="107" y="119"/>
      <point x="243" y="-22"/>
      <point x="456" y="-22" type="curve" smooth="yes"/>
      <point x="582" y="-22"/>
      <point x="688" y="17"/>
      <point x="776" y="100" type="curve"/>
      <point x="841" y="33" type="line" smooth="yes"/>
      <point x="863" y="10"/>
      <point x="885" y="0"/>
      <point x="913" y="0" type="curve" smooth="yes"/>
      <point x="1084" y="0" type="line" smooth="yes"/>
      <point x="1129" y="0"/>
      <point x="1147" y="17"/>
      <point x="1147" y="102" type="curve" smooth="yes"/>
      <point x="1147" y="187"/>
      <point x="1129" y="205"/>
      <point x="1084" y="205" type="curve" smooth="yes"/>
      <point x="1007" y="205" type="line"/>
      <point x="916" y="299" type="line"/>
      <point x="936" y="342"/>
      <point x="955" y="389"/>
      <point x="973" y="440" type="curve"/>
      <point x="1064" y="440" type="line" smooth="yes"/>
      <point x="1109" y="440"/>
      <point x="1127" y="458"/>
      <point x="1127" y="543" type="curve" smooth="yes"/>
      <point x="1127" y="628"/>
      <point x="1109" y="645"/>
      <point x="1064" y="645" type="curve" smooth="yes"/>
      <point x="844" y="645" type="line" smooth="yes"/>
      <point x="814" y="645"/>
      <point x="800" y="628"/>
      <point x="792" y="603" type="curve" smooth="yes"/>
      <point x="777" y="558"/>
      <point x="761" y="516"/>
      <point x="745" y="477" type="curve"/>
      <point x="564" y="666" type="line" smooth="yes"/>
      <point x="501" y="731"/>
      <point x="456" y="793"/>
      <point x="456" y="861" type="curve" smooth="yes"/>
      <point x="456" y="940"/>
      <point x="508" y="992"/>
      <point x="582" y="992" type="curve" smooth="yes"/>
      <point x="632" y="992"/>
      <point x="681" y="978"/>
      <point x="725" y="956" type="curve"/>
      <point x="725" y="854" type="line" smooth="yes"/>
      <point x="725" y="809"/>
      <point x="748" y="791"/>
      <point x="833" y="791" type="curve" smooth="yes"/>
      <point x="918" y="791"/>
      <point x="955" y="809"/>
      <point x="955" y="854" type="curve" smooth="yes"/>
      <point x="955" y="1051" type="line" smooth="yes"/>
      <point x="955" y="1079"/>
      <point x="941" y="1097"/>
      <point x="912" y="1113" type="curve" smooth="yes"/>
      <point x="794" y="1178"/>
      <point x="685" y="1209"/>
      <point x="583" y="1209" type="curve" smooth="yes"/>
    </contour>
    <contour>
      <point x="617" y="266" type="line"/>
      <point x="576" y="226"/>
      <point x="530" y="205"/>
      <point x="476" y="205" type="curve" smooth="yes"/>
      <point x="402" y="205"/>
      <point x="355" y="254"/>
      <point x="355" y="330" type="curve" smooth="yes"/>
      <point x="355" y="386"/>
      <point x="378" y="429"/>
      <point x="422" y="469" type="curve"/>
    </contour>
  </outline>
</glyph>
<glyph name="quotesingle" format="1">
  <advance width="1228"/>
  <unicode hex="0027"/>
  <outline>
    <contour>
      <point x="489" y="1269" type="line" smooth="yes"/>
      <point x="459" y="1269"/>
      <point x="443" y="1254"/>
      <point x="448" y="1219" type="curve" smooth="yes"/>
      <point x="521" y="739" type="line" smooth="yes"/>
      <point x="527" y="698"/>
      <point x="549" y="671"/>
      <point x="614" y="671" type="curve" smooth="yes"/>
      <point x="679" y="671"/>
      <point x="701" y="698"/>
      <point x="707" y="739" type="curve" smooth="yes"/>
      <point x="780" y="1219" type="line" smooth="yes"/>
      <point x="785" y="1254"/>
      <point x="769" y="1269"/>
      <point x="739" y="1269" type="curve" smooth="yes"/>
    </contour>
  </outline>
</glyph>
<glyph name="parenleft" format="1">
  <advance width="1228"/>
  <unicode hex="0028"/>
  <outline>
    <contour>
      <point x="517" y="1231"/>
      <point x="257" y="952"/>
      <point x="257" y="519" type="curve" smooth="yes"/>
      <point x="257" y="86"/>
      <point x="517" y="-193"/>
      <point x="771" y="-337" type="curve"/>
      <point x="811" y="-360"/>
      <point x="857" y="-328"/>
      <point x="891" y="-277" type="curve" smooth="yes"/>
      <point x="927" y="-223"/>
      <point x="941" y="-163"/>
      <point x="909" y="-143" type="curve" smooth="yes"/>
      <point x="651" y="19"/>
      <point x="505" y="226"/>
      <point x="505" y="519" type="curve" smooth="yes"/>
      <point x="505" y="812"/>
      <point x="651" y="1019"/>
      <point x="909" y="1181" type="curve" smooth="yes"/>
      <point x="941" y="1201"/>
      <point x="927" y="1261"/>
      <point x="891" y="1315" type="curve" smooth="yes"/>
      <point x="857" y="1366"/>
      <point x="811" y="1398"/>
      <point x="771" y="1375" type="curve" smooth="yes"/>
    </contour>
  </outline>
</glyph>
<glyph name="comma" format="1">
  <advance width="1228"/>
  <unicode hex="002C"/>
  <outline>
    <contour>
      <point x="506" y="354" type="line" smooth="yes"/>
      <point x="478" y="354"/>
      <point x="459" y="340"/>
      <point x="454" y="314" type="curve" smooth="yes"/>
      <point x="354" y="-228" type="line" smooth="yes"/>
      <point x="346" y="-271"/>
      <point x="378" y="-294"/>
      <point x="434" y="-294" type="curve" smooth="yes"/>
      <point x="490" y="-294"/>
      <point x="526" y="-279"/>
      <point x="540" y="-246" type="curve" smooth="yes"/>
      <point x="777" y="291" type="line" smooth="yes"/>
      <point x="793" y="327"/>
      <point x="782" y="354"/>
      <point x="749" y="354" type="curve" smooth="yes"/>
    </contour>
  </outline>
</glyph>
<glyph name="hyphen" format="1">
  <advance width="1228"/>
  <unicode hex="002D"/>
  <outline>
    <contour>
      <point x="233" y="695" type="line" smooth="yes"/>
      <point x="188" y="695"/>
      <point x="170" y="677"/>
      <point x="170" y="582" type="curve" smooth="yes"/>
      <point x="170" y="487"/>
      <point x="188" y="470"/>
      <point x="233" y="470" type="curve" smooth="yes"/>
      <point x="995" y="470" type="line" smooth="yes"/>
      <point x="1040" y="470"/>
      <point x="1058" y="487"/>
      <point x="1058" y="582" type="curve" smooth="yes"/>
      <point x="1058" y="677"/>
      <point x="1040" y="695"/>
      <point x="995" y="695" type="curve" smooth="yes"/>
    </contour>
  </outline>
</glyph>
<glyph name="period" format="1">
  <advance width="1228"/>
  <unicode hex="002E"/>
  <outline>
    <contour>
      <point x="498" y="370"/>
      <point x="449" y="352"/>
      <point x="449" y="307" type="curve" smooth="yes"/>
      <point x="449" y="53" type="line" smooth="yes"/>
      <point x="449" y="8"/>
      <point x="498" y="-10"/>
      <point x="614" y="-10" type="curve" smooth="yes"/>
      <point x="730" y="-10"/>
      <point x="779" y="8"/>
      <point x="779" y="53" type="curve" smooth="yes"/>
      <point x="779" y="307" type="line" smooth="yes"/>
      <point x="779" y="352"/>
      <point x="730" y="370"/>
      <point x="614" y="370" type="curve" smooth="yes"/>
    </contour>
  </outline>
</glyph>
<glyph name="zero" format="1">
  <advance width="1228"/>
  <unicode hex="0030"/>
  <outline>
    <contour>
      <point x="314" y="1209"/>
      <point x="133" y="953"/>
      <point x="133" y="593" type="curve" smooth="yes"/>
      <point x="133" y="233"/>
      <point x="314" y="-22"/>
      <point x="614" y="-22" type="curve" smooth="yes"/>
      <point x="914" y="-22"/>
      <point x="1095" y="233"/>
      <point x="1095" y="593" type="curve" smooth="yes"/>
      <point x="1095" y="953"/>
      <point x="914" y="1209"/>
      <point x="614" y="1209" type="curve" smooth="yes"/>
    </contour>
    <contour>
      <point x="751" y="982"/>
      <point x="827" y="851"/>
      <point x="827" y="593" type="curve" smooth="yes"/>
      <point x="827" y="335"/>
      <point x="751" y="205"/>
      <point x="614" y="205" type="curve" smooth="yes"/>
      <point x="477" y="205"/>
      <point x="401" y="335"/>
      <point x="401" y="593" type="curve" smooth="yes"/>
      <point x="401" y="851"/>
      <point x="477" y="982"/>
      <point x="614" y="982" type="curve" smooth="yes"/>
    </contour>
  </outline>
</glyph>
<glyph name="one" format="1">
  <advance width="1228"/>
  <unicode hex="0031"/>
  <outline>
    <contour>
      <point x="225" y="958" type="line" smooth="yes"/>
      <point x="184" y="935"/>
      <point x="171" y="902"/>
      <point x="206" y="825" type="curve" smooth="yes"/>
      <point x="239" y="752"/>
      <point x="270" y="737"/>
      <point x="310" y="760" type="curve" smooth="yes"/>
      <point x="519" y="879" type="line"/>
      <point x="519" y="165" type="line"/>
      <point x="769" y="165" type="line"/>
      <point x="769" y="1148" type="line" smooth="yes"/>
      <point x="769" y="1214"/>
      <point x="702" y="1227"/>
      <point x="647" y="1196" type="curve" smooth="yes"/>
    </contour>
    <contour>
      <point x="273" y="205" type="line" smooth="yes"/>
      <point x="228" y="205"/>
      <point x="210" y="187"/>
      <point x="210" y="102" type="curve" smooth="yes"/>
      <point x="210" y="17"/>
      <point x="228" y="0"/>
      <point x="273" y="0" type="curve" smooth="yes"/>
      <point x="1005" y="0" type="line" smooth="yes"/>
      <point x="1050" y="0"/>
      <point x="1068" y="17"/>
      <point x="1068" y="102" type="curve" smooth="yes"/>
      <point x="1068" y="187"/>
      <point x="1050" y="205"/>
      <point x="1005" y="205" type="curve" smooth="yes"/>
    </contour>
  </outline>
</glyph>
<glyph name="two" format="1">
  <advance width="1228"/>
  <unicode hex="0032"/>
  <outline>
    <contour>
      <point x="488" y="1209"/>
      <point x="362" y="1177"/>
      <point x="241" y="1111" type="curve" smooth="yes"/>
      <point x="213" y="1096"/>
      <point x="198" y="1075"/>
      <point x="198" y="1047" type="curve" smooth="yes"/>
      <point x="198" y="810" type="line" smooth="yes"/>
      <point x="198" y="765"/>
      <point x="235" y="747"/>
      <point x="320" y="747" type="curve" smooth="yes"/>
      <point x="405" y="747"/>
      <point x="428" y="765"/>
      <point x="428" y="810" type="curve" smooth="yes"/>
      <point x="428" y="950" type="line"/>
      <point x="479" y="975"/>
      <point x="539" y="992"/>
      <point x="601" y="992" type="curve" smooth="yes"/>
      <point x="705" y="992"/>
      <point x="757" y="928"/>
      <point x="757" y="839" type="curve" smooth="yes"/>
      <point x="757" y="768"/>
      <point x="719" y="713"/>
      <point x="611" y="609" type="curve" smooth="yes"/>
      <point x="182" y="196" type="line" smooth="yes"/>
      <point x="164" y="179"/>
      <point x="158" y="157"/>
      <point x="158" y="103" type="curve" smooth="yes"/>
      <point x="158" y="18"/>
      <point x="176" y="0"/>
      <point x="221" y="0" type="curve" smooth="yes"/>
      <point x="995" y="0" type="line" smooth="yes"/>
      <point x="1041" y="0"/>
      <point x="1060" y="19"/>
      <point x="1060" y="65" type="curve" smooth="yes"/>
      <point x="1060" y="307" type="line" smooth="yes"/>
      <point x="1060" y="352"/>
      <point x="1023" y="370"/>
      <point x="938" y="370" type="curve" smooth="yes"/>
      <point x="853" y="370"/>
      <point x="830" y="352"/>
      <point x="830" y="307" type="curve" smooth="yes"/>
      <point x="830" y="215" type="line"/>
      <point x="548" y="215" type="line"/>
      <point x="821" y="478" type="line" smooth="yes"/>
      <point x="949" y="601"/>
      <point x="1011" y="705"/>
      <point x="1011" y="844" type="curve" smooth="yes"/>
      <point x="1011" y="1062"/>
      <point x="868" y="1209"/>
      <point x="600" y="1209" type="curve" smooth="yes"/>
    </contour>
  </outline>
</glyph>
<glyph name="five" format="1">
  <advance width="1228"/>
  <unicode hex="0035"/>
  <outline>
    <contour>
      <point x="313" y="1187" type="line" smooth="yes"/>
      <point x="267" y="1187"/>
      <point x="251" y="1168"/>
      <point x="248" y="1122" type="curve" smooth="yes"/>
      <point x="215" y="572" type="line" smooth="yes"/>
      <point x="212" y="526"/>
      <point x="244" y="507"/>
      <point x="330" y="507" type="curve" smooth="yes"/>
      <point x="354" y="507"/>
      <point x="386" y="513"/>
      <point x="412" y="523" type="curve" smooth="yes"/>
      <point x="469" y="544"/>
      <point x="537" y="559"/>
      <point x="604" y="559" type="curve" smooth="yes"/>
      <point x="715" y="559"/>
      <point x="778" y="494"/>
      <point x="778" y="386" type="curve" smooth="yes"/>
      <point x="778" y="270"/>
      <point x="694" y="205"/>
      <point x="574" y="205" type="curve" smooth="yes"/>
      <point x="480" y="205"/>
      <point x="379" y="237"/>
      <point x="289" y="282" type="curve" smooth="yes"/>
      <point x="258" y="297"/>
      <point x="223" y="280"/>
      <point x="193" y="203" type="curve" smooth="yes"/>
      <point x="163" y="126"/>
      <point x="176" y="88"/>
      <point x="214" y="67" type="curve"/>
      <point x="317" y="11"/>
      <point x="447" y="-22"/>
      <point x="574" y="-22" type="curve" smooth="yes"/>
      <point x="862" y="-22"/>
      <point x="1046" y="112"/>
      <point x="1046" y="386" type="curve" smooth="yes"/>
      <point x="1046" y="619"/>
      <point x="911" y="786"/>
      <point x="657" y="786" type="curve" smooth="yes"/>
      <point x="591" y="786"/>
      <point x="527" y="773"/>
      <point x="465" y="749" type="curve"/>
      <point x="479" y="972" type="line"/>
      <point x="921" y="972" type="line" smooth="yes"/>
      <point x="966" y="972"/>
      <point x="984" y="994"/>
      <point x="984" y="1079" type="curve" smooth="yes"/>
      <point x="984" y="1164"/>
      <point x="966" y="1187"/>
      <point x="921" y="1187" type="curve" smooth="yes"/>
    </contour>
  </outline>
</glyph>
<glyph name="six" format="1">
  <advance width="1228"/>
  <unicode hex="0036"/>
  <outline>
    <contour>
      <point x="444" y="1188"/>
      <point x="160" y="934"/>
      <point x="160" y="512" type="curve" smooth="yes"/>
      <point x="160" y="377"/>
      <point x="191" y="257"/>
      <point x="246" y="176" type="curve" smooth="yes"/>
      <point x="331" y="51"/>
      <point x="460" y="-22"/>
      <point x="631" y="-22" type="curve"/>
      <point x="891" y="-22"/>
      <point x="1078" y="139"/>
      <point x="1078" y="366" type="curve" smooth="yes"/>
      <point x="1078" y="588"/>
      <point x="919" y="741"/>
      <point x="695" y="741" type="curve" smooth="yes"/>
      <point x="580" y="741"/>
      <point x="493" y="705"/>
      <point x="420" y="624" type="curve"/>
      <point x="459" y="851"/>
      <point x="634" y="949"/>
      <point x="998" y="967" type="curve" smooth="yes"/>
      <point x="1029" y="969"/>
      <point x="1046" y="1010"/>
      <point x="1037" y="1102" type="curve" smooth="yes"/>
      <point x="1030" y="1177"/>
      <point x="1012" y="1210"/>
      <point x="977" y="1209" type="curve" smooth="yes"/>
    </contour>
    <contour>
      <point x="751" y="529"/>
      <point x="820" y="468"/>
      <point x="820" y="365" type="curve" smooth="yes"/>
      <point x="820" y="264"/>
      <point x="744" y="201"/>
      <point x="630" y="201" type="curve" smooth="yes"/>
      <point x="509" y="201"/>
      <point x="440" y="280"/>
      <point x="440" y="371" type="curve"/>
      <point x="440" y="465"/>
      <point x="521" y="529"/>
      <point x="638" y="529" type="curve" smooth="yes"/>
    </contour>
  </outline>
</glyph>
<glyph name="seven" format="1">
  <advance width="1228"/>
  <unicode hex="0037"/>
  <outline>
    <contour>
      <point x="253" y="1187" type="line" smooth="yes"/>
      <point x="207" y="1187"/>
      <point x="188" y="1168"/>
      <point x="188" y="1122" type="curve" smooth="yes"/>
      <point x="188" y="780" type="line" smooth="yes"/>
      <point x="188" y="735"/>
      <point x="225" y="717"/>
      <point x="310" y="717" type="curve" smooth="yes"/>
      <point x="395" y="717"/>
      <point x="418" y="735"/>
      <point x="418" y="780" type="curve" smooth="yes"/>
      <point x="418" y="972" type="line"/>
      <point x="784" y="972" type="line"/>
      <point x="408" y="97" type="line" smooth="yes"/>
      <point x="384" y="42"/>
      <point x="434" y="1"/>
      <point x="504" y="-15" type="curve" smooth="yes"/>
      <point x="574" y="-31"/>
      <point x="635" y="-20"/>
      <point x="654" y="24" type="curve" smooth="yes"/>
      <point x="1071" y="1012" type="line" smooth="yes"/>
      <point x="1077" y="1027"/>
      <point x="1080" y="1050"/>
      <point x="1080" y="1084" type="curve" smooth="yes"/>
      <point x="1080" y="1169"/>
      <point x="1062" y="1187"/>
      <point x="1017" y="1187" type="curve" smooth="yes"/>
    </contour>
  </outline>
</glyph>
<glyph name="eight" format="1">
  <advance width="1228"/>
  <unicode hex="0038"/>
  <outline>
    <contour>
      <point x="362" y="1209"/>
      <point x="210" y="1056"/>
      <point x="210" y="871" type="curve" smooth="yes"/>
      <point x="210" y="744"/>
      <point x="274" y="663"/>
      <point x="373" y="619" type="curve"/>
      <point x="251" y="574"/>
      <point x="171" y="484"/>
      <point x="171" y="335" type="curve" smooth="yes"/>
      <point x="171" y="111"/>
      <point x="350" y="-22"/>
      <point x="614" y="-22" type="curve" smooth="yes"/>
      <point x="878" y="-22"/>
      <point x="1057" y="111"/>
      <point x="1057" y="335" type="curve" smooth="yes"/>
      <point x="1057" y="484"/>
      <point x="976" y="574"/>
      <point x="855" y="619" type="curve"/>
      <point x="953" y="663"/>
      <point x="1018" y="744"/>
      <point x="1018" y="871" type="curve" smooth="yes"/>
      <point x="1018" y="1056"/>
      <point x="866" y="1209"/>
      <point x="614" y="1209" type="curve" smooth="yes"/>
    </contour>
    <contour>
      <point x="731" y="518"/>
      <point x="792" y="452"/>
      <point x="792" y="356" type="curve" smooth="yes"/>
      <point x="792" y="260"/>
      <point x="731" y="196"/>
      <point x="614" y="196" type="curve" smooth="yes"/>
      <point x="497" y="196"/>
      <point x="436" y="260"/>
      <point x="436" y="356" type="curve" smooth="yes"/>
      <point x="436" y="452"/>
      <point x="497" y="518"/>
      <point x="614" y="518" type="curve" smooth="yes"/>
    </contour>
    <contour>
      <point x="709" y="991"/>
      <point x="769" y="935"/>
      <point x="769" y="851" type="curve" smooth="yes"/>
      <point x="769" y="768"/>
      <point x="712" y="712"/>
      <point x="614" y="712" type="curve" smooth="yes"/>
      <point x="516" y="712"/>
      <point x="459" y="768"/>
      <point x="459" y="851" type="curve" smooth="yes"/>
      <point x="459" y="935"/>
      <point x="519" y="991"/>
      <point x="614" y="991" type="curve" smooth="yes"/>
    </contour>
  </outline>
</glyph>
<glyph name="nine" format="1">
  <advance width="1228"/>
  <unicode hex="0039"/>
  <outline>
    <contour>
      <point x="337" y="1209"/>
      <point x="150" y="1048"/>
      <point x="150" y="821" type="curve" smooth="yes"/>
      <point x="150" y="599"/>
      <point x="309" y="446"/>
      <point x="533" y="446" type="curve" smooth="yes"/>
      <point x="648" y="446"/>
      <point x="735" y="482"/>
      <point x="808" y="563" type="curve"/>
      <point x="779" y="336"/>
      <point x="654" y="238"/>
      <point x="290" y="220" type="curve" smooth="yes"/>
      <point x="259" y="218"/>
      <point x="242" y="177"/>
      <point x="251" y="85" type="curve" smooth="yes"/>
      <point x="258" y="10"/>
      <point x="276" y="-23"/>
      <point x="311" y="-22" type="curve" smooth="yes"/>
      <point x="844" y="-1"/>
      <point x="1068" y="253"/>
      <point x="1068" y="675" type="curve" smooth="yes"/>
      <point x="1068" y="810"/>
      <point x="1037" y="930"/>
      <point x="982" y="1011" type="curve" smooth="yes"/>
      <point x="897" y="1136"/>
      <point x="768" y="1209"/>
      <point x="597" y="1209" type="curve" smooth="yes"/>
    </contour>
    <contour>
      <point x="719" y="986"/>
      <point x="788" y="907"/>
      <point x="788" y="816" type="curve"/>
      <point x="788" y="722"/>
      <point x="707" y="658"/>
      <point x="590" y="658" type="curve" smooth="yes"/>
      <point x="477" y="658"/>
      <point x="408" y="719"/>
      <point x="408" y="822" type="curve" smooth="yes"/>
      <point x="408" y="923"/>
      <point x="484" y="986"/>
      <point x="598" y="986" type="curve" smooth="yes"/>
    </contour>
  </outline>
</glyph>
<glyph name="greater" format="1">
  <advance width="1228"/>
  <unicode hex="003E"/>
  <outline>
    <contour>
      <point x="241" y="1100"/>
      <point x="212" y="1091"/>
      <point x="172" y="1011" type="curve" smooth="yes"/>
      <point x="132" y="931"/>
      <point x="140" y="896"/>
      <point x="182" y="875" type="curve" smooth="yes"/>
      <point x="767" y="583" type="line"/>
      <point x="182" y="291" type="line" smooth="yes"/>
      <point x="140" y="270"/>
      <point x="132" y="235"/>
      <point x="172" y="155" type="curve" smooth="yes"/>
      <point x="212" y="75"/>
      <point x="241" y="66"/>
      <point x="282" y="87" type="curve" smooth="yes"/>
      <point x="1062" y="489" type="line" smooth="yes"/>
      <point x="1094" y="505"/>
      <point x="1108" y="526"/>
      <point x="1108" y="583" type="curve" smooth="yes"/>
      <point x="1108" y="640"/>
      <point x="1094" y="661"/>
      <point x="1062" y="677" type="curve" smooth="yes"/>
      <point x="282" y="1079" type="line" smooth="yes"/>
    </contour>
  </outline>
</glyph>
<glyph name="question" format="1">
  <advance width="1228"/>
  <unicode hex="003F"/>
  <outline>
    <contour>
      <point x="477" y="1269"/>
      <point x="359" y="1233"/>
      <point x="249" y="1181" type="curve" smooth="yes"/>
      <point x="222" y="1168"/>
      <point x="208" y="1147"/>
      <point x="208" y="1120" type="curve" smooth="yes"/>
      <point x="208" y="930" type="line" smooth="yes"/>
      <point x="208" y="885"/>
      <point x="245" y="867"/>
      <point x="330" y="867" type="curve" smooth="yes"/>
      <point x="415" y="867"/>
      <point x="438" y="885"/>
      <point x="438" y="930" type="curve" smooth="yes"/>
      <point x="438" y="1022" type="line"/>
      <point x="485" y="1040"/>
      <point x="537" y="1052"/>
      <point x="591" y="1052" type="curve" smooth="yes"/>
      <point x="693" y="1052"/>
      <point x="747" y="1005"/>
      <point x="747" y="914" type="curve" smooth="yes"/>
      <point x="747" y="831"/>
      <point x="700" y="785"/>
      <point x="605" y="767" type="curve" smooth="yes"/>
      <point x="502" y="747" type="line" smooth="yes"/>
      <point x="477" y="742"/>
      <point x="470" y="722"/>
      <point x="471" y="696" type="curve" smooth="yes"/>
      <point x="483" y="487" type="line" smooth="yes"/>
      <point x="485" y="456"/>
      <point x="507" y="439"/>
      <point x="584" y="439" type="curve" smooth="yes"/>
      <point x="661" y="439"/>
      <point x="683" y="456"/>
      <point x="685" y="487" type="curve" smooth="yes"/>
      <point x="691" y="573" type="line"/>
      <point x="891" y="628"/>
      <point x="998" y="723"/>
      <point x="998" y="914" type="curve" smooth="yes"/>
      <point x="998" y="1134"/>
      <point x="861" y="1269"/>
      <point x="600" y="1269" type="curve" smooth="yes"/>
    </contour>
    <contour>
      <point x="482" y="290"/>
      <point x="439" y="272"/>
      <point x="439" y="227" type="curve" smooth="yes"/>
      <point x="439" y="53" type="line" smooth="yes"/>
      <point x="439" y="8"/>
      <point x="482" y="-10"/>
      <point x="584" y="-10" type="curve" smooth="yes"/>
      <point x="686" y="-10"/>
      <point x="729" y="8"/>
      <point x="729" y="53" type="curve" smooth="yes"/>
      <point x="729" y="227" type="line" smooth="yes"/>
      <point x="729" y="272"/>
      <point x="686" y="290"/>
      <point x="584" y="290" type="curve" smooth="yes"/>
    </contour>
  </outline>
</glyph>
<glyph name="B" format="1">
  <advance width="1228"/>
  <unicode hex="0042"/>
  <outline>
    <contour>
      <point x="133" y="1187" type="line" smooth="yes"/>
      <point x="88" y="1187"/>
      <point x="70" y="1169"/>
      <point x="70" y="1084" type="curve" smooth="yes"/>
      <point x="70" y="999"/>
      <point x="88" y="982"/>
      <point x="133" y="982" type="curve" smooth="yes"/>
      <point x="240" y="982" type="line"/>
      <point x="240" y="205" type="line"/>
      <point x="133" y="205" type="line" smooth="yes"/>
      <point x="88" y="205"/>
      <point x="70" y="187"/>
      <point x="70" y="102" type="curve" smooth="yes"/>
      <point x="70" y="17"/>
      <point x="88" y="0"/>
      <point x="133" y="0" type="curve" smooth="yes"/>
      <point x="710" y="0" type="line" smooth="yes"/>
      <point x="984" y="0"/>
      <point x="1139" y="116"/>
      <point x="1139" y="344" type="curve" smooth="yes"/>
      <point x="1139" y="503"/>
      <point x="1051" y="592"/>
      <point x="910" y="630" type="curve"/>
      <point x="1003" y="675"/>
      <point x="1064" y="751"/>
      <point x="1064" y="864" type="curve" smooth="yes"/>
      <point x="1064" y="1059"/>
      <point x="942" y="1187"/>
      <point x="654" y="1187" type="curve" smooth="yes"/>
    </contour>
    <contour>
      <point x="813" y="499"/>
      <point x="876" y="453"/>
      <point x="876" y="354" type="curve" smooth="yes"/>
      <point x="876" y="263"/>
      <point x="815" y="215"/>
      <point x="682" y="215" type="curve" smooth="yes"/>
      <point x="490" y="215" type="line"/>
      <point x="490" y="499" type="line"/>
      <point x="682" y="499" type="line" smooth="yes"/>
    </contour>
    <contour>
      <point x="755" y="972"/>
      <point x="810" y="934"/>
      <point x="810" y="844" type="curve" smooth="yes"/>
      <point x="810" y="755"/>
      <point x="752" y="714"/>
      <point x="632" y="714" type="curve" smooth="yes"/>
      <point x="490" y="714" type="line"/>
      <point x="490" y="972" type="line"/>
      <point x="632" y="972" type="line" smooth="yes"/>
    </contour>
  </outline>
</glyph>
<glyph name="D" format="1">
  <advance width="1228"/>
  <unicode hex="0044"/>
  <outline>
    <contour>
      <point x="123" y="1187" type="line" smooth="yes"/>
      <point x="78" y="1187"/>
      <point x="60" y="1169"/>
      <point x="60" y="1084" type="curve" smooth="yes"/>
      <point x="60" y="999"/>
      <point x="78" y="982"/>
      <point x="123" y="982" type="curve" smooth="yes"/>
      <point x="220" y="982" type="line"/>
      <point x="220" y="205" type="line"/>
      <point x="123" y="205" type="line" smooth="yes"/>
      <point x="78" y="205"/>
      <point x="60" y="187"/>
      <point x="60" y="102" type="curve" smooth="yes"/>
      <point x="60" y="17"/>
      <point x="78" y="0"/>
      <point x="123" y="0" type="curve" smooth="yes"/>
      <point x="594" y="0" type="line" smooth="yes"/>
      <point x="944" y="0"/>
      <point x="1155" y="214"/>
      <point x="1155" y="594" type="curve" smooth="yes"/>
      <point x="1155" y="974"/>
      <point x="944" y="1187"/>
      <point x="594" y="1187" type="curve" smooth="yes"/>
    </contour>
    <contour>
      <point x="781" y="972"/>
      <point x="887" y="842"/>
      <point x="887" y="594" type="curve" smooth="yes"/>
      <point x="887" y="346"/>
      <point x="781" y="215"/>
      <point x="574" y="215" type="curve" smooth="yes"/>
      <point x="470" y="215" type="line"/>
      <point x="470" y="972" type="line"/>
      <point x="574" y="972" type="line" smooth="yes"/>
    </contour>
  </outline>
</glyph>
<glyph name="K" format="1">
  <advance width="1228"/>
  <unicode hex="004B"/>
  <outline>
    <contour>
      <point x="741" y="1187" type="line" smooth="yes"/>
      <point x="696" y="1187"/>
      <point x="678" y="1169"/>
      <point x="678" y="1084" type="curve" smooth="yes"/>
      <point x="678" y="999"/>
      <point x="696" y="982"/>
      <point x="741" y="982" type="curve" smooth="yes"/>
      <point x="794" y="982" type="line"/>
      <point x="470" y="662" type="line"/>
      <point x="470" y="982" type="line"/>
      <point x="517" y="982" type="line" smooth="yes"/>
      <point x="562" y="982"/>
      <point x="580" y="999"/>
      <point x="580" y="1084" type="curve" smooth="yes"/>
      <point x="580" y="1169"/>
      <point x="562" y="1187"/>
      <point x="517" y="1187" type="curve" smooth="yes"/>
      <point x="113" y="1187" type="line" smooth="yes"/>
      <point x="68" y="1187"/>
      <point x="50" y="1169"/>
      <point x="50" y="1084" type="curve" smooth="yes"/>
      <point x="50" y="999"/>
      <point x="68" y="982"/>
      <point x="113" y="982" type="curve" smooth="yes"/>
      <point x="220" y="982" type="line"/>
      <point x="220" y="205" type="line"/>
      <point x="113" y="205" type="line" smooth="yes"/>
      <point x="68" y="205"/>
      <point x="50" y="187"/>
      <point x="50" y="102" type="curve" smooth="yes"/>
      <point x="50" y="17"/>
      <point x="68" y="0"/>
      <point x="113" y="0" type="curve" smooth="yes"/>
      <point x="585" y="0" type="line" smooth="yes"/>
      <point x="630" y="0"/>
      <point x="648" y="17"/>
      <point x="648" y="102" type="curve" smooth="yes"/>
      <point x="648" y="187"/>
      <point x="630" y="205"/>
      <point x="585" y="205" type="curve" smooth="yes"/>
      <point x="470" y="205" type="line"/>
      <point x="470" y="381" type="line"/>
      <point x="521" y="431" type="line" smooth="yes"/>
      <point x="545" y="454"/>
      <point x="572" y="465"/>
      <point x="600" y="465" type="curve" smooth="yes"/>
      <point x="646" y="465"/>
      <point x="690" y="432"/>
      <point x="724" y="381" type="curve" smooth="yes"/>
      <point x="766" y="317"/>
      <point x="802" y="221"/>
      <point x="844" y="142" type="curve" smooth="yes"/>
      <point x="885" y="65"/>
      <point x="937" y="0"/>
      <point x="1026" y="0" type="curve" smooth="yes"/>
      <point x="1165" y="0" type="line" smooth="yes"/>
      <point x="1210" y="0"/>
      <point x="1228" y="17"/>
      <point x="1228" y="102" type="curve" smooth="yes"/>
      <point x="1228" y="187"/>
      <point x="1210" y="205"/>
      <point x="1165" y="205" type="curve" smooth="yes"/>
      <point x="1155" y="205" type="line" smooth="yes"/>
      <point x="1112" y="205"/>
      <point x="1081" y="236"/>
      <point x="1054" y="282" type="curve" smooth="yes"/>
      <point x="1011" y="354"/>
      <point x="977" y="453"/>
      <point x="919" y="535" type="curve" smooth="yes"/>
      <point x="875" y="598"/>
      <point x="813" y="637"/>
      <point x="737" y="641" type="curve"/>
      <point x="1087" y="982" type="line"/>
      <point x="1130" y="982" type="line" smooth="yes"/>
      <point x="1175" y="982"/>
      <point x="1193" y="999"/>
      <point x="1193" y="1084" type="curve" smooth="yes"/>
      <point x="1193" y="1169"/>
      <point x="1175" y="1187"/>
      <point x="1130" y="1187" type="curve" smooth="yes"/>
    </contour>
  </outline>
</glyph>
<glyph name="L" format="1">
  <advance width="1228"/>
  <unicode hex="004C"/>
  <outline>
    <contour>
      <point x="123" y="1187" type="line" smooth="yes"/>
      <point x="78" y="1187"/>
      <point x="60" y="1169"/>
      <point x="60" y="1084" type="curve" smooth="yes"/>
      <point x="60" y="999"/>
      <point x="78" y="982"/>
      <point x="123" y="982" type="curve" smooth="yes"/>
      <point x="269" y="982" type="line"/>
      <point x="269" y="205" type="line"/>
      <point x="123" y="205" type="line" smooth="yes"/>
      <point x="78" y="205"/>
      <point x="60" y="187"/>
      <point x="60" y="102" type="curve" smooth="yes"/>
      <point x="60" y="17"/>
      <point x="78" y="0"/>
      <point x="123" y="0" type="curve" smooth="yes"/>
      <point x="1055" y="0" type="line" smooth="yes"/>
      <point x="1101" y="0"/>
      <point x="1120" y="19"/>
      <point x="1120" y="65" type="curve" smooth="yes"/>
      <point x="1120" y="527" type="line" smooth="yes"/>
      <point x="1120" y="572"/>
      <point x="1097" y="590"/>
      <point x="1002" y="590" type="curve" smooth="yes"/>
      <point x="907" y="590"/>
      <point x="870" y="572"/>
      <point x="870" y="527" type="curve" smooth="yes"/>
      <point x="870" y="215" type="line"/>
      <point x="519" y="215" type="line"/>
      <point x="519" y="982" type="line"/>
      <point x="737" y="982" type="line" smooth="yes"/>
      <point x="782" y="982"/>
      <point x="800" y="999"/>
      <point x="800" y="1084" type="curve" smooth="yes"/>
      <point x="800" y="1169"/>
      <point x="782" y="1187"/>
      <point x="737" y="1187" type="curve" smooth="yes"/>
    </contour>
  </outline>
</glyph>
<glyph name="M" format="1">
  <advance width="1228"/>
  <unicode hex="004D"/>
  <outline>
    <contour>
      <point x="850" y="1187" type="line" smooth="yes"/>
      <point x="823" y="1187"/>
      <point x="805" y="1180"/>
      <point x="796" y="1156" type="curve" smooth="yes"/>
      <point x="614" y="665" type="line"/>
      <point x="431" y="1156" type="line" smooth="yes"/>
      <point x="422" y="1180"/>
      <point x="404" y="1187"/>
      <point x="377" y="1187" type="curve" smooth="yes"/>
      <point x="93" y="1187" type="line" smooth="yes"/>
      <point x="48" y="1187"/>
      <point x="30" y="1169"/>
      <point x="30" y="1084" type="curve" smooth="yes"/>
      <point x="30" y="999"/>
      <point x="48" y="982"/>
      <point x="93" y="982" type="curve" smooth="yes"/>
      <point x="147" y="982" type="line"/>
      <point x="132" y="205" type="line"/>
      <point x="73" y="205" type="line" smooth="yes"/>
      <point x="28" y="205"/>
      <point x="10" y="187"/>
      <point x="10" y="102" type="curve" smooth="yes"/>
      <point x="10" y="17"/>
      <point x="28" y="0"/>
      <point x="73" y="0" type="curve" smooth="yes"/>
      <point x="447" y="0" type="line" smooth="yes"/>
      <point x="492" y="0"/>
      <point x="510" y="17"/>
      <point x="510" y="102" type="curve" smooth="yes"/>
      <point x="510" y="187"/>
      <point x="492" y="205"/>
      <point x="447" y="205" type="curve" smooth="yes"/>
      <point x="354" y="205" type="line"/>
      <point x="360" y="794" type="line"/>
      <point x="512" y="389" type="line" smooth="yes"/>
      <point x="530" y="343"/>
      <point x="558" y="325"/>
      <point x="615" y="325" type="curve" smooth="yes"/>
      <point x="672" y="325"/>
      <point x="699" y="343"/>
      <point x="716" y="389" type="curve" smooth="yes"/>
      <point x="867" y="797" type="line"/>
      <point x="873" y="205" type="line"/>
      <point x="781" y="205" type="line" smooth="yes"/>
      <point x="736" y="205"/>
      <point x="718" y="187"/>
      <point x="718" y="102" type="curve" smooth="yes"/>
      <point x="718" y="17"/>
      <point x="736" y="0"/>
      <point x="781" y="0" type="curve" smooth="yes"/>
      <point x="1155" y="0" type="line" smooth="yes"/>
      <point x="1200" y="0"/>
      <point x="1218" y="17"/>
      <point x="1218" y="102" type="curve" smooth="yes"/>
      <point x="1218" y="187"/>
      <point x="1200" y="205"/>
      <point x="1155" y="205" type="curve" smooth="yes"/>
      <point x="1095" y="205" type="line"/>
      <point x="1081" y="982" type="line"/>
      <point x="1135" y="982" type="line" smooth="yes"/>
      <point x="1180" y="982"/>
      <point x="1198" y="999"/>
      <point x="1198" y="1084" type="curve" smooth="yes"/>
      <point x="1198" y="1169"/>
      <point x="1180" y="1187"/>
      <point x="1135" y="1187" type="curve" smooth="yes"/>
    </contour>
  </outline>
</glyph>
<glyph name="O" format="1">
  <advance width="1228"/>
  <unicode hex="004F"/>
  <outline>
    <contour>
      <point x="284" y="1209"/>
      <point x="63" y="974"/>
      <point x="63" y="594" type="curve" smooth="yes"/>
      <point x="63" y="214"/>
      <point x="284" y="-22"/>
      <point x="614" y="-22" type="curve" smooth="yes"/>
      <point x="944" y="-22"/>
      <point x="1165" y="214"/>
      <point x="1165" y="594" type="curve" smooth="yes"/>
      <point x="1165" y="974"/>
      <point x="944" y="1209"/>
      <point x="614" y="1209" type="curve" smooth="yes"/>
    </contour>
    <contour>
      <point x="801" y="982"/>
      <point x="897" y="842"/>
      <point x="897" y="594" type="curve" smooth="yes"/>
      <point x="897" y="346"/>
      <point x="801" y="205"/>
      <point x="614" y="205" type="curve" smooth="yes"/>
      <point x="427" y="205"/>
      <point x="331" y="346"/>
      <point x="331" y="594" type="curve" smooth="yes"/>
      <point x="331" y="842"/>
      <point x="427" y="982"/>
      <point x="614" y="982" type="curve" smooth="yes"/>
    </contour>
  </outline>
</glyph>
<glyph name="P" format="1">
  <advance width="1228"/>
  <unicode hex="0050"/>
  <outline>
    <contour>
      <point x="123" y="1187" type="line" smooth="yes"/>
      <point x="78" y="1187"/>
      <point x="60" y="1169"/>
      <point x="60" y="1084" type="curve" smooth="yes"/>
      <point x="60" y="999"/>
      <point x="78" y="982"/>
      <point x="123" y="982" type="curve" smooth="yes"/>
      <point x="270" y="982" type="line"/>
      <point x="270" y="205" type="line"/>
      <point x="123" y="205" type="line" smooth="yes"/>
      <point x="78" y="205"/>
      <point x="60" y="187"/>
      <point x="60" y="102" type="curve" smooth="yes"/>
      <point x="60" y="17"/>
      <point x="78" y="0"/>
      <point x="123" y="0" type="curve" smooth="yes"/>
      <point x="737" y="0" type="line" smooth="yes"/>
      <point x="782" y="0"/>
      <point x="800" y="17"/>
      <point x="800" y="102" type="curve" smooth="yes"/>
      <point x="800" y="187"/>
      <point x="782" y="205"/>
      <point x="737" y="205" type="curve" smooth="yes"/>
      <point x="520" y="205" type="line"/>
      <point x="520" y="382" type="line"/>
      <point x="670" y="382" type="line" smooth="yes"/>
      <point x="980" y="382"/>
      <point x="1137" y="528"/>
      <point x="1137" y="785" type="curve" smooth="yes"/>
      <point x="1137" y="1042"/>
      <point x="980" y="1187"/>
      <point x="670" y="1187" type="curve" smooth="yes"/>
    </contour>
    <contour>
      <point x="796" y="972"/>
      <point x="879" y="914"/>
      <point x="879" y="785" type="curve" smooth="yes"/>
      <point x="879" y="656"/>
      <point x="796" y="597"/>
      <point x="639" y="597" type="curve" smooth="yes"/>
      <point x="520" y="597" type="line"/>
      <point x="520" y="972" type="line"/>
      <point x="639" y="972" type="line" smooth="yes"/>
    </contour>
  </outline>
</glyph>
<glyph name="Q" format="1">
  <advance width="1228"/>
  <unicode hex="0051"/>
  <outline>
    <contour>
      <point x="284" y="1209"/>
      <point x="63" y="984"/>
      <point x="63" y="634" type="curve" smooth="yes"/>
      <point x="63" y="371"/>
      <point x="188" y="178"/>
      <point x="390" y="98" type="curve"/>
      <point x="202" y="-102" type="line" smooth="yes"/>
      <point x="175" y="-130"/>
      <point x="184" y="-182"/>
      <point x="207" y="-223" type="curve" smooth="yes"/>
      <point x="230" y="-265"/>
      <point x="268" y="-297"/>
      <point x="297" y="-284" type="curve" smooth="yes"/>
      <point x="382" y="-248"/>
      <point x="461" y="-237"/>
      <point x="526" y="-237" type="curve" smooth="yes"/>
      <point x="660" y="-237"/>
      <point x="770" y="-281"/>
      <point x="882" y="-281" type="curve" smooth="yes"/>
      <point x="953" y="-281"/>
      <point x="1025" y="-263"/>
      <point x="1105" y="-204" type="curve" smooth="yes"/>
      <point x="1148" y="-172"/>
      <point x="1148" y="-122"/>
      <point x="1121" y="-67" type="curve" smooth="yes"/>
      <point x="1096" y="-15"/>
      <point x="1054" y="14"/>
      <point x="1016" y="-6" type="curve" smooth="yes"/>
      <point x="958" y="-37"/>
      <point x="909" y="-46"/>
      <point x="863" y="-46" type="curve" smooth="yes"/>
      <point x="783" y="-46"/>
      <point x="711" y="-17"/>
      <point x="619" y="-17" type="curve" smooth="yes"/>
      <point x="573" y="-17"/>
      <point x="522" y="-24"/>
      <point x="463" y="-46" type="curve"/>
      <point x="569" y="60" type="line"/>
      <point x="579" y="59"/>
      <point x="597" y="58"/>
      <point x="614" y="58" type="curve" smooth="yes"/>
      <point x="944" y="58"/>
      <point x="1165" y="284"/>
      <point x="1165" y="634" type="curve" smooth="yes"/>
      <point x="1165" y="984"/>
      <point x="944" y="1209"/>
      <point x="614" y="1209" type="curve" smooth="yes"/>
    </contour>
    <contour>
      <point x="801" y="982"/>
      <point x="897" y="852"/>
      <point x="897" y="634" type="curve" smooth="yes"/>
      <point x="897" y="416"/>
      <point x="801" y="285"/>
      <point x="614" y="285" type="curve" smooth="yes"/>
      <point x="427" y="285"/>
      <point x="331" y="416"/>
      <point x="331" y="634" type="curve" smooth="yes"/>
      <point x="331" y="852"/>
      <point x="427" y="982"/>
      <point x="614" y="982" type="curve" smooth="yes"/>
    </contour>
  </outline>
</glyph>
<glyph name="T" format="1">
  <advance width="1228"/>
  <unicode hex="0054"/>
  <outline>
    <contour>
      <point x="163" y="1187" type="line" smooth="yes"/>
      <point x="117" y="1187"/>
      <point x="98" y="1168"/>
      <point x="98" y="1122" type="curve" smooth="yes"/>
      <point x="98" y="700" type="line" smooth="yes"/>
      <point x="98" y="655"/>
      <point x="121" y="637"/>
      <point x="196" y="637" type="curve" smooth="yes"/>
      <point x="271" y="637"/>
      <point x="308" y="655"/>
      <point x="308" y="700" type="curve" smooth="yes"/>
      <point x="308" y="972" type="line"/>
      <point x="489" y="972" type="line"/>
      <point x="489" y="205" type="line"/>
      <point x="273" y="205" type="line" smooth="yes"/>
      <point x="228" y="205"/>
      <point x="210" y="187"/>
      <point x="210" y="102" type="curve" smooth="yes"/>
      <point x="210" y="17"/>
      <point x="228" y="0"/>
      <point x="273" y="0" type="curve" smooth="yes"/>
      <point x="955" y="0" type="line" smooth="yes"/>
      <point x="1000" y="0"/>
      <point x="1018" y="17"/>
      <point x="1018" y="102" type="curve" smooth="yes"/>
      <point x="1018" y="187"/>
      <point x="1000" y="205"/>
      <point x="955" y="205" type="curve" smooth="yes"/>
      <point x="739" y="205" type="line"/>
      <point x="739" y="972" type="line"/>
      <point x="920" y="972" type="line"/>
      <point x="920" y="700" type="line" smooth="yes"/>
      <point x="920" y="655"/>
      <point x="943" y="637"/>
      <point x="1018" y="637" type="curve" smooth="yes"/>
      <point x="1093" y="637"/>
      <point x="1130" y="655"/>
      <point x="1130" y="700" type="curve" smooth="yes"/>
      <point x="1130" y="1122" type="line" smooth="yes"/>
      <point x="1130" y="1168"/>
      <point x="1111" y="1187"/>
      <point x="1065" y="1187" type="curve" smooth="yes"/>
    </contour>
  </outline>
</glyph>
<glyph name="W" format="1">
  <advance width="1228"/>
  <unicode hex="0057"/>
  <outline>
    <contour>
      <point x="811" y="1187" type="line" smooth="yes"/>
      <point x="766" y="1187"/>
      <point x="748" y="1169"/>
      <point x="748" y="1084" type="curve" smooth="yes"/>
      <point x="748" y="999"/>
      <point x="766" y="982"/>
      <point x="811" y="982" type="curve" smooth="yes"/>
      <point x="914" y="982" type="line"/>
      <point x="860" y="398" type="line"/>
      <point x="713" y="833" type="line"/>
      <point x="705" y="859"/>
      <point x="682" y="873"/>
      <point x="613" y="873" type="curve" smooth="yes"/>
      <point x="545" y="873"/>
      <point x="527" y="852"/>
      <point x="519" y="826" type="curve"/>
      <point x="373" y="398" type="line"/>
      <point x="320" y="982" type="line"/>
      <point x="437" y="982" type="line" smooth="yes"/>
      <point x="482" y="982"/>
      <point x="500" y="999"/>
      <point x="500" y="1084" type="curve" smooth="yes"/>
      <point x="500" y="1169"/>
      <point x="482" y="1187"/>
      <point x="437" y="1187" type="curve" smooth="yes"/>
      <point x="43" y="1187" type="line" smooth="yes"/>
      <point x="-2" y="1187"/>
      <point x="-20" y="1169"/>
      <point x="-20" y="1084" type="curve" smooth="yes"/>
      <point x="-20" y="999"/>
      <point x="-2" y="982"/>
      <point x="43" y="982" type="curve" smooth="yes"/>
      <point x="93" y="982" type="line"/>
      <point x="190" y="43" type="line" smooth="yes"/>
      <point x="195" y="-5"/>
      <point x="218" y="-22"/>
      <point x="309" y="-22" type="curve" smooth="yes"/>
      <point x="400" y="-22"/>
      <point x="432" y="-3"/>
      <point x="448" y="43" type="curve" smooth="yes"/>
      <point x="610" y="514" type="line"/>
      <point x="770" y="43" type="line" smooth="yes"/>
      <point x="785" y="-2"/>
      <point x="816" y="-22"/>
      <point x="907" y="-22" type="curve" smooth="yes"/>
      <point x="998" y="-22"/>
      <point x="1023" y="-6"/>
      <point x="1028" y="43" type="curve" smooth="yes"/>
      <point x="1129" y="982" type="line"/>
      <point x="1185" y="982" type="line" smooth="yes"/>
      <point x="1230" y="982"/>
      <point x="1248" y="999"/>
      <point x="1248" y="1084" type="curve" smooth="yes"/>
      <point x="1248" y="1169"/>
      <point x="1230" y="1187"/>
      <point x="1185" y="1187" type="curve" smooth="yes"/>
    </contour>
  </outline>
</glyph>
<glyph name="bracketleft" format="1">
  <advance width="1228"/>
  <unicode hex="005B"/>
  <outline>
    <contour>
      <point x="353" y="1372" type="line" smooth="yes"/>
      <point x="308" y="1372"/>
      <point x="290" y="1354"/>
      <point x="290" y="1309" type="curve" smooth="yes"/>
      <point x="290" y="-270" type="line" smooth="yes"/>
      <point x="290" y="-315"/>
      <point x="308" y="-333"/>
      <point x="353" y="-333" type="curve" smooth="yes"/>
      <point x="540" y="-333" type="line"/>
      <point x="540" y="1372" type="line"/>
    </contour>
    <contour>
      <point x="449" y="-108" type="line"/>
      <point x="449" y="-333" type="line"/>
      <point x="863" y="-333" type="line" smooth="yes"/>
      <point x="908" y="-333"/>
      <point x="926" y="-311"/>
      <point x="926" y="-221" type="curve" smooth="yes"/>
      <point x="926" y="-131"/>
      <point x="908" y="-108"/>
      <point x="863" y="-108" type="curve" smooth="yes"/>
    </contour>
    <contour>
      <point x="449" y="1372" type="line"/>
      <point x="449" y="1147" type="line"/>
      <point x="863" y="1147" type="line" smooth="yes"/>
      <point x="908" y="1147"/>
      <point x="926" y="1169"/>
      <point x="926" y="1259" type="curve" smooth="yes"/>
      <point x="926" y="1349"/>
      <point x="908" y="1372"/>
      <point x="863" y="1372" type="curve" smooth="yes"/>
    </contour>
  </outline>
</glyph>
<glyph name="backslash" format="1">
  <advance width="1228"/>
  <unicode hex="005C"/>
  <outline>
    <contour>
      <point x="216" y="1399"/>
      <point x="140" y="1357"/>
      <point x="163" y="1301" type="curve" smooth="yes"/>
      <point x="829" y="-317" type="line" smooth="yes"/>
      <point x="841" y="-346"/>
      <point x="869" y="-360"/>
      <point x="911" y="-360" type="curve" smooth="yes"/>
      <point x="1012" y="-360"/>
      <point x="1088" y="-318"/>
      <point x="1065" y="-262" type="curve" smooth="yes"/>
      <point x="399" y="1356" type="line" smooth="yes"/>
      <point x="387" y="1385"/>
      <point x="359" y="1399"/>
      <point x="317" y="1399" type="curve" smooth="yes"/>
    </contour>
  </outline>
</glyph>
<glyph name="d" format="1">
  <advance width="1228"/>
  <unicode hex="0064"/>
  <outline>
    <contour>
      <point x="644" y="1312" type="line" smooth="yes"/>
      <point x="599" y="1312"/>
      <point x="581" y="1294"/>
      <point x="581" y="1209" type="curve" smooth="yes"/>
      <point x="581" y="1124"/>
      <point x="599" y="1107"/>
      <point x="644" y="1107" type="curve" smooth="yes"/>
      <point x="791" y="1107" type="line"/>
      <point x="791" y="828" type="line"/>
      <point x="724" y="902"/>
      <point x="634" y="946"/>
      <point x="528" y="946" type="curve" smooth="yes"/>
      <point x="259" y="946"/>
      <point x="97" y="732"/>
      <point x="97" y="462" type="curve" smooth="yes"/>
      <point x="97" y="192"/>
      <point x="259" y="-22"/>
      <point x="528" y="-22" type="curve" smooth="yes"/>
      <point x="656" y="-22"/>
      <point x="763" y="42"/>
      <point x="831" y="147" type="curve"/>
      <point x="831" y="63" type="line" smooth="yes"/>
      <point x="831" y="18"/>
      <point x="849" y="0"/>
      <point x="894" y="0" type="curve"/>
      <point x="1128" y="0" type="line" smooth="yes"/>
      <point x="1173" y="0"/>
      <point x="1191" y="18"/>
      <point x="1191" y="103" type="curve" smooth="yes"/>
      <point x="1191" y="188"/>
      <point x="1173" y="205"/>
      <point x="1128" y="205" type="curve" smooth="yes"/>
      <point x="1041" y="205" type="line"/>
      <point x="1041" y="1249" type="line" smooth="yes"/>
      <point x="1041" y="1294"/>
      <point x="1023" y="1312"/>
      <point x="978" y="1312" type="curve" smooth="yes"/>
    </contour>
    <contour>
      <point x="693" y="719"/>
      <point x="798" y="628"/>
      <point x="798" y="462" type="curve" smooth="yes"/>
      <point x="798" y="296"/>
      <point x="693" y="205"/>
      <point x="568" y="205" type="curve" smooth="yes"/>
      <point x="443" y="205"/>
      <point x="365" y="306"/>
      <point x="365" y="462" type="curve" smooth="yes"/>
      <point x="365" y="618"/>
      <point x="443" y="719"/>
      <point x="568" y="719" type="curve" smooth="yes"/>
    </contour>
  </outline>
</glyph>
<glyph name="f" format="1">
  <advance width="1228"/>
  <unicode hex="0066"/>
  <outline>
    <contour>
      <point x="538" y="1317"/>
      <point x="413" y="1186"/>
      <point x="413" y="937" type="curve" smooth="yes"/>
      <point x="413" y="864" type="line"/>
      <point x="230" y="864" type="line" smooth="yes"/>
      <point x="185" y="864"/>
      <point x="167" y="841"/>
      <point x="167" y="756" type="curve" smooth="yes"/>
      <point x="167" y="671"/>
      <point x="185" y="649"/>
      <point x="230" y="649" type="curve" smooth="yes"/>
      <point x="413" y="649" type="line"/>
      <point x="413" y="205" type="line"/>
      <point x="230" y="205" type="line" smooth="yes"/>
      <point x="185" y="205"/>
      <point x="167" y="187"/>
      <point x="167" y="102" type="curve" smooth="yes"/>
      <point x="167" y="17"/>
      <point x="185" y="0"/>
      <point x="230" y="0" type="curve" smooth="yes"/>
      <point x="944" y="0" type="line" smooth="yes"/>
      <point x="989" y="0"/>
      <point x="1007" y="17"/>
      <point x="1007" y="102" type="curve" smooth="yes"/>
      <point x="1007" y="187"/>
      <point x="989" y="205"/>
      <point x="944" y="205" type="curve" smooth="yes"/>
      <point x="663" y="205" type="line"/>
      <point x="663" y="649" type="line"/>
      <point x="974" y="649" type="line" smooth="yes"/>
      <point x="1019" y="649"/>
      <point x="1037" y="671"/>
      <point x="1037" y="756" type="curve" smooth="yes"/>
      <point x="1037" y="841"/>
      <point x="1019" y="864"/>
      <point x="974" y="864" type="curve" smooth="yes"/>
      <point x="663" y="864" type="line"/>
      <point x="663" y="924" type="line" smooth="yes"/>
      <point x="663" y="1039"/>
      <point x="710" y="1090"/>
      <point x="792" y="1090" type="curve" smooth="yes"/>
      <point x="860" y="1090"/>
      <point x="929" y="1077"/>
      <point x="1014" y="1051" type="curve" smooth="yes"/>
      <point x="1057" y="1038"/>
      <point x="1092" y="1047"/>
      <point x="1114" y="1128" type="curve" smooth="yes"/>
      <point x="1136" y="1211"/>
      <point x="1120" y="1243"/>
      <point x="1074" y="1260" type="curve" smooth="yes"/>
      <point x="965" y="1301"/>
      <point x="864" y="1317"/>
      <point x="770" y="1317" type="curve" smooth="yes"/>
    </contour>
  </outline>
</glyph>
<glyph name="k" format="1">
  <advance width="1228"/>
  <unicode hex="006B"/>
  <outline>
    <contour>
      <point x="120" y="1312" type="line" smooth="yes"/>
      <point x="75" y="1312"/>
      <point x="57" y="1294"/>
      <point x="57" y="1209" type="curve" smooth="yes"/>
      <point x="57" y="1124"/>
      <point x="75" y="1107"/>
      <point x="120" y="1107" type="curve" smooth="yes"/>
      <point x="217" y="1107" type="line"/>
      <point x="217" y="205" type="line"/>
      <point x="140" y="205" type="line" smooth="yes"/>
      <point x="95" y="205"/>
      <point x="77" y="187"/>
      <point x="77" y="102" type="curve" smooth="yes"/>
      <point x="77" y="17"/>
      <point x="95" y="0"/>
      <point x="140" y="0" type="curve" smooth="yes"/>
      <point x="554" y="0" type="line" smooth="yes"/>
      <point x="599" y="0"/>
      <point x="617" y="17"/>
      <point x="617" y="102" type="curve" smooth="yes"/>
      <point x="617" y="187"/>
      <point x="599" y="205"/>
      <point x="554" y="205" type="curve" smooth="yes"/>
      <point x="467" y="205" type="line"/>
      <point x="467" y="1249" type="line" smooth="yes"/>
      <point x="467" y="1294"/>
      <point x="449" y="1312"/>
      <point x="404" y="1312" type="curve" smooth="yes"/>
    </contour>
    <contour>
      <point x="739" y="749" type="line"/>
      <point x="455" y="517" type="line"/>
      <point x="454" y="275" type="line"/>
      <point x="618" y="400" type="line"/>
      <point x="790" y="528" type="line"/>
      <point x="1063" y="749" type="line"/>
    </contour>
    <contour>
      <point x="677" y="924" type="line" smooth="yes"/>
      <point x="632" y="924"/>
      <point x="614" y="906"/>
      <point x="614" y="831" type="curve" smooth="yes"/>
      <point x="614" y="756"/>
      <point x="632" y="739"/>
      <point x="677" y="739" type="curve" smooth="yes"/>
      <point x="1091" y="739" type="line" smooth="yes"/>
      <point x="1136" y="739"/>
      <point x="1154" y="756"/>
      <point x="1154" y="831" type="curve" smooth="yes"/>
      <point x="1154" y="906"/>
      <point x="1136" y="924"/>
      <point x="1091" y="924" type="curve" smooth="yes"/>
    </contour>
    <contour>
      <point x="596" y="403" type="line"/>
      <point x="857" y="40" type="line" smooth="yes"/>
      <point x="877" y="11"/>
      <point x="904" y="0"/>
      <point x="935" y="0" type="curve" smooth="yes"/>
      <point x="1088" y="0" type="line"/>
      <point x="1088" y="146" type="line"/>
      <point x="793" y="551" type="line"/>
    </contour>
    <contour>
      <point x="972" y="205" type="line" smooth="yes"/>
      <point x="927" y="205"/>
      <point x="909" y="187"/>
      <point x="909" y="102" type="curve" smooth="yes"/>
      <point x="909" y="17"/>
      <point x="927" y="0"/>
      <point x="972" y="0" type="curve" smooth="yes"/>
      <point x="1106" y="0" type="line" smooth="yes"/>
      <point x="1151" y="0"/>
      <point x="1169" y="17"/>
      <point x="1169" y="102" type="curve" smooth="yes"/>
      <point x="1169" y="187"/>
      <point x="1150" y="205"/>
      <point x="1106" y="205" type="curve" smooth="yes"/>
    </contour>
  </outline>
</glyph>
<glyph name="o" format="1">
  <advance width="1228"/>
  <unicode hex="006F"/>
  <outline>
    <contour>
      <point x="305" y="946"/>
      <point x="111" y="742"/>
      <point x="111" y="462" type="curve" smooth="yes"/>
      <point x="111" y="182"/>
      <point x="305" y="-22"/>
      <point x="614" y="-22" type="curve" smooth="yes"/>
      <point x="923" y="-22"/>
      <point x="1117" y="182"/>
      <point x="1117" y="462" type="curve" smooth="yes"/>
      <point x="1117" y="742"/>
      <point x="923" y="946"/>
      <point x="614" y="946" type="curve" smooth="yes"/>
    </contour>
    <contour>
      <point x="759" y="719"/>
      <point x="849" y="618"/>
      <point x="849" y="462" type="curve" smooth="yes"/>
      <point x="849" y="306"/>
      <point x="759" y="205"/>
      <point x="614" y="205" type="curve" smooth="yes"/>
      <point x="469" y="205"/>
      <point x="379" y="306"/>
      <point x="379" y="462" type="curve" smooth="yes"/>
      <point x="379" y="618"/>
      <point x="469" y="719"/>
      <point x="614" y="719" type="curve" smooth="yes"/>
    </contour>
  </outline>
</glyph>
<glyph name="q" format="1">
  <advance width="1228"/>
  <unicode hex="0071"/>
  <outline>
    <contour>
      <point x="259" y="946"/>
      <point x="97" y="732"/>
      <point x="97" y="462" type="curve" smooth="yes"/>
      <point x="97" y="192"/>
      <point x="259" y="-22"/>
      <point x="528" y="-22" type="curve" smooth="yes"/>
      <point x="634" y="-22"/>
      <point x="724" y="22"/>
      <point x="791" y="96" type="curve"/>
      <point x="791" y="-183" type="line"/>
      <point x="624" y="-183" type="line" smooth="yes"/>
      <point x="579" y="-183"/>
      <point x="561" y="-200"/>
      <point x="561" y="-285" type="curve" smooth="yes"/>
      <point x="561" y="-370"/>
      <point x="579" y="-388"/>
      <point x="624" y="-388" type="curve" smooth="yes"/>
      <point x="1128" y="-388" type="line" smooth="yes"/>
      <point x="1173" y="-388"/>
      <point x="1191" y="-371"/>
      <point x="1191" y="-286" type="curve" smooth="yes"/>
      <point x="1191" y="-201"/>
      <point x="1173" y="-183"/>
      <point x="1128" y="-183" type="curve" smooth="yes"/>
      <point x="1041" y="-183" type="line"/>
      <point x="1041" y="719" type="line"/>
      <point x="1128" y="719" type="line" smooth="yes"/>
      <point x="1173" y="719"/>
      <point x="1191" y="736"/>
      <point x="1191" y="821" type="curve" smooth="yes"/>
      <point x="1191" y="906"/>
      <point x="1173" y="924"/>
      <point x="1128" y="924" type="curve" smooth="yes"/>
      <point x="894" y="924" type="line" smooth="yes"/>
      <point x="849" y="924"/>
      <point x="831" y="906"/>
      <point x="831" y="861" type="curve" smooth="yes"/>
      <point x="831" y="777" type="line"/>
      <point x="763" y="882"/>
      <point x="656" y="946"/>
      <point x="528" y="946" type="curve" smooth="yes"/>
    </contour>
    <contour>
      <point x="693" y="719"/>
      <point x="798" y="628"/>
      <point x="798" y="462" type="curve" smooth="yes"/>
      <point x="798" y="296"/>
      <point x="693" y="205"/>
      <point x="568" y="205" type="curve" smooth="yes"/>
      <point x="443" y="205"/>
      <point x="365" y="306"/>
      <point x="365" y="462" type="curve" smooth="yes"/>
      <point x="365" y="618"/>
      <point x="443" y="719"/>
      <point x="568" y="719" type="curve" smooth="yes"/>
    </contour>
  </outline>
</glyph>
<glyph name="r" format="1">
  <advance width="1228"/>
  <unicode hex="0072"/>
  <outline>
    <contour>
      <point x="794" y="946"/>
      <point x="658" y="838"/>
      <point x="557" y="644" type="curve"/>
      <point x="557" y="861" type="line" smooth="yes"/>
      <point x="557" y="906"/>
      <point x="539" y="924"/>
      <point x="494" y="924" type="curve" smooth="yes"/>
      <point x="220" y="924" type="line" smooth="yes"/>
      <point x="175" y="924"/>
      <point x="157" y="906"/>
      <point x="157" y="821" type="curve" smooth="yes"/>
      <point x="157" y="736"/>
      <point x="175" y="719"/>
      <point x="220" y="719" type="curve" smooth="yes"/>
      <point x="337" y="719" type="line"/>
      <point x="337" y="205" type="line"/>
      <point x="190" y="205" type="line" smooth="yes"/>
      <point x="145" y="205"/>
      <point x="127" y="187"/>
      <point x="127" y="102" type="curve" smooth="yes"/>
      <point x="127" y="17"/>
      <point x="145" y="0"/>
      <point x="190" y="0" type="curve" smooth="yes"/>
      <point x="874" y="0" type="line" smooth="yes"/>
      <point x="919" y="0"/>
      <point x="937" y="17"/>
      <point x="937" y="102" type="curve" smooth="yes"/>
      <point x="937" y="187"/>
      <point x="919" y="205"/>
      <point x="874" y="205" type="curve" smooth="yes"/>
      <point x="587" y="205" type="line"/>
      <point x="587" y="300" type="line" smooth="yes"/>
      <point x="587" y="518"/>
      <point x="725" y="676"/>
      <point x="879" y="676" type="curve" smooth="yes"/>
      <point x="917" y="676"/>
      <point x="957" y="666"/>
      <point x="995" y="645" type="curve" smooth="yes"/>
      <point x="1037" y="622"/>
      <point x="1081" y="647"/>
      <point x="1113" y="728" type="curve" smooth="yes"/>
      <point x="1143" y="803"/>
      <point x="1136" y="853"/>
      <point x="1087" y="890" type="curve" smooth="yes"/>
      <point x="1036" y="928"/>
      <point x="982" y="946"/>
      <point x="927" y="946" type="curve" smooth="yes"/>
    </contour>
  </outline>
</glyph>
<glyph name="t" format="1">
  <advance width="1228"/>
  <unicode hex="0074"/>
  <outline>
    <contour>
      <point x="390" y="1209"/>
      <point x="353" y="1191"/>
      <point x="353" y="1146" type="curve" smooth="yes"/>
      <point x="353" y="864" type="line"/>
      <point x="160" y="864" type="line" smooth="yes"/>
      <point x="115" y="864"/>
      <point x="97" y="841"/>
      <point x="97" y="756" type="curve" smooth="yes"/>
      <point x="97" y="671"/>
      <point x="115" y="649"/>
      <point x="160" y="649" type="curve" smooth="yes"/>
      <point x="353" y="649" type="line"/>
      <point x="353" y="358" type="line" smooth="yes"/>
      <point x="353" y="109"/>
      <point x="478" y="-22"/>
      <point x="710" y="-22" type="curve" smooth="yes"/>
      <point x="825" y="-22"/>
      <point x="946" y="21"/>
      <point x="1067" y="82" type="curve" smooth="yes"/>
      <point x="1111" y="104"/>
      <point x="1123" y="138"/>
      <point x="1091" y="217" type="curve" smooth="yes"/>
      <point x="1060" y="296"/>
      <point x="1024" y="301"/>
      <point x="983" y="283" type="curve" smooth="yes"/>
      <point x="895" y="244"/>
      <point x="800" y="205"/>
      <point x="732" y="205" type="curve" smooth="yes"/>
      <point x="650" y="205"/>
      <point x="603" y="256"/>
      <point x="603" y="371" type="curve" smooth="yes"/>
      <point x="603" y="649" type="line"/>
      <point x="974" y="649" type="line" smooth="yes"/>
      <point x="1019" y="649"/>
      <point x="1037" y="671"/>
      <point x="1037" y="756" type="curve" smooth="yes"/>
      <point x="1037" y="841"/>
      <point x="1019" y="864"/>
      <point x="974" y="864" type="curve" smooth="yes"/>
      <point x="603" y="864" type="line"/>
      <point x="603" y="1146" type="line" smooth="yes"/>
      <point x="603" y="1191"/>
      <point x="580" y="1209"/>
      <point x="485" y="1209" type="curve" smooth="yes"/>
    </contour>
  </outline>
</glyph>
<glyph name="u" format="1">
  <advance width="1228"/>
  <unicode hex="0075"/>
  <outline>
    <contour>
      <point x="675" y="924" type="line" smooth="yes"/>
      <point x="630" y="924"/>
      <point x="612" y="907"/>
      <point x="612" y="822" type="curve" smooth="yes"/>
      <point x="612" y="737"/>
      <point x="630" y="719"/>
      <point x="675" y="719" type="curve" smooth="yes"/>
      <point x="782" y="719" type="line"/>
      <point x="782" y="556" type="line" smooth="yes"/>
      <point x="782" y="368"/>
      <point x="676" y="205"/>
      <point x="557" y="205" type="curve" smooth="yes"/>
      <point x="469" y="205"/>
      <point x="440" y="265"/>
      <point x="440" y="363" type="curve" smooth="yes"/>
      <point x="440" y="861" type="line" smooth="yes"/>
      <point x="440" y="906"/>
      <point x="422" y="924"/>
      <point x="377" y="924" type="curve" smooth="yes"/>
      <point x="113" y="924" type="line" smooth="yes"/>
      <point x="68" y="924"/>
      <point x="50" y="907"/>
      <point x="50" y="822" type="curve" smooth="yes"/>
      <point x="50" y="737"/>
      <point x="68" y="719"/>
      <point x="113" y="719" type="curve" smooth="yes"/>
      <point x="190" y="719" type="line"/>
      <point x="190" y="304" type="line" smooth="yes"/>
      <point x="190" y="104"/>
      <point x="308" y="-22"/>
      <point x="492" y="-22" type="curve" smooth="yes"/>
      <point x="617" y="-22"/>
      <point x="729" y="46"/>
      <point x="822" y="208" type="curve"/>
      <point x="822" y="63" type="line" smooth="yes"/>
      <point x="822" y="18"/>
      <point x="840" y="0"/>
      <point x="885" y="0" type="curve" smooth="yes"/>
      <point x="1109" y="0" type="line" smooth="yes"/>
      <point x="1154" y="0"/>
      <point x="1172" y="18"/>
      <point x="1172" y="103" type="curve" smooth="yes"/>
      <point x="1172" y="188"/>
      <point x="1154" y="205"/>
      <point x="1109" y="205" type="curve" smooth="yes"/>
      <point x="1032" y="205" type="line"/>
      <point x="1032" y="861" type="line" smooth="yes"/>
      <point x="1032" y="906"/>
      <point x="1014" y="924"/>
      <point x="969" y="924" type="curve" smooth="yes"/>
    </contour>
  </outline>
</glyph>
<glyph name="x" format="1">
  <advance width="1228"/>
  <unicode hex="0078"/>
  <outline>
    <contour>
      <point x="731" y="924" type="line" smooth="yes"/>
      <point x="686" y="924"/>
      <point x="668" y="906"/>
      <point x="668" y="821" type="curve" smooth="yes"/>
      <point x="668" y="736"/>
      <point x="686" y="719"/>
      <point x="731" y="719" type="curve" smooth="yes"/>
      <point x="753" y="719" type="line"/>
      <point x="632" y="588" type="line"/>
      <point x="504" y="719" type="line"/>
      <point x="517" y="719" type="line" smooth="yes"/>
      <point x="562" y="719"/>
      <point x="580" y="736"/>
      <point x="580" y="821" type="curve" smooth="yes"/>
      <point x="580" y="906"/>
      <point x="562" y="924"/>
      <point x="517" y="924" type="curve" smooth="yes"/>
      <point x="143" y="924" type="line" smooth="yes"/>
      <point x="98" y="924"/>
      <point x="80" y="906"/>
      <point x="80" y="821" type="curve" smooth="yes"/>
      <point x="80" y="736"/>
      <point x="98" y="719"/>
      <point x="143" y="719" type="curve" smooth="yes"/>
      <point x="195" y="719" type="line"/>
      <point x="441" y="469" type="line"/>
      <point x="187" y="205" type="line"/>
      <point x="133" y="205" type="line" smooth="yes"/>
      <point x="88" y="205"/>
      <point x="70" y="187"/>
      <point x="70" y="102" type="curve" smooth="yes"/>
      <point x="70" y="17"/>
      <point x="88" y="0"/>
      <point x="133" y="0" type="curve" smooth="yes"/>
      <point x="487" y="0" type="line" smooth="yes"/>
      <point x="532" y="0"/>
      <point x="550" y="17"/>
      <point x="550" y="102" type="curve" smooth="yes"/>
      <point x="550" y="187"/>
      <point x="532" y="205"/>
      <point x="487" y="205" type="curve" smooth="yes"/>
      <point x="470" y="205" type="line"/>
      <point x="594" y="339" type="line"/>
      <point x="725" y="205" type="line"/>
      <point x="711" y="205" type="line" smooth="yes"/>
      <point x="666" y="205"/>
      <point x="648" y="187"/>
      <point x="648" y="102" type="curve" smooth="yes"/>
      <point x="648" y="17"/>
      <point x="666" y="0"/>
      <point x="711" y="0" type="curve" smooth="yes"/>
      <point x="1095" y="0" type="line" smooth="yes"/>
      <point x="1140" y="0"/>
      <point x="1158" y="17"/>
      <point x="1158" y="102" type="curve" smooth="yes"/>
      <point x="1158" y="187"/>
      <point x="1140" y="205"/>
      <point x="1095" y="205" type="curve" smooth="yes"/>
      <point x="1044" y="205" type="line"/>
      <point x="785" y="468" type="line"/>
      <point x="1026" y="719" type="line"/>
      <point x="1085" y="719" type="line" smooth="yes"/>
      <point x="1130" y="719"/>
      <point x="1148" y="736"/>
      <point x="1148" y="821" type="curve" smooth="yes"/>
      <point x="1148" y="906"/>
      <point x="1130" y="924"/>
      <point x="1085" y="924" type="curve" smooth="yes"/>
    </contour>
  </outline>
</glyph>
<glyph name="y" format="1">
  <advance width="1228"/>
  <unicode hex="0079"/>
  <outline>
    <contour>
      <point x="741" y="924" type="line" smooth="yes"/>
      <point x="696" y="924"/>
      <point x="678" y="906"/>
      <point x="678" y="821" type="curve" smooth="yes"/>
      <point x="678" y="736"/>
      <point x="696" y="719"/>
      <point x="741" y="719" type="curve" smooth="yes"/>
      <point x="795" y="719" type="line"/>
      <point x="621" y="339" type="line"/>
      <point x="447" y="719" type="line"/>
      <point x="507" y="719" type="line" smooth="yes"/>
      <point x="552" y="719"/>
      <point x="570" y="736"/>
      <point x="570" y="821" type="curve" smooth="yes"/>
      <point x="570" y="906"/>
      <point x="552" y="924"/>
      <point x="507" y="924" type="curve" smooth="yes"/>
      <point x="103" y="924" type="line" smooth="yes"/>
      <point x="58" y="924"/>
      <point x="40" y="906"/>
      <point x="40" y="821" type="curve" smooth="yes"/>
      <point x="40" y="736"/>
      <point x="58" y="719"/>
      <point x="103" y="719" type="curve" smooth="yes"/>
      <point x="178" y="719" type="line"/>
      <point x="484" y="90" type="line"/>
      <point x="378" y="-116"/>
      <point x="325" y="-175"/>
      <point x="168" y="-184" type="curve" smooth="yes"/>
      <point x="132" y="-186"/>
      <point x="112" y="-216"/>
      <point x="117" y="-307" type="curve" smooth="yes"/>
      <point x="122" y="-390"/>
      <point x="150" y="-411"/>
      <point x="189" y="-410" type="curve" smooth="yes"/>
      <point x="439" y="-402"/>
      <point x="541" y="-334"/>
      <point x="678" y="-57" type="curve" smooth="yes"/>
      <point x="1061" y="719" type="line"/>
      <point x="1125" y="719" type="line" smooth="yes"/>
      <point x="1170" y="719"/>
      <point x="1188" y="736"/>
      <point x="1188" y="821" type="curve" smooth="yes"/>
      <point x="1188" y="906"/>
      <point x="1170" y="924"/>
      <point x="1125" y="924" type="curve" smooth="yes"/>
    </contour>
  </outline>
</glyph>
<glyph name="bar" format="1">
  <advance width="1228"/>
  <unicode hex="007C"/>
  <outline>
    <contour>
      <point x="536" y="1394"/>
      <point x="489" y="1376"/>
      <point x="489" y="1331" type="curve" smooth="yes"/>
      <point x="489" y="-292" type="line" smooth="yes"/>
      <point x="489" y="-337"/>
      <point x="522" y="-355"/>
      <point x="607" y="-355" type="curve" smooth="yes"/>
      <point x="692" y="-355"/>
      <point x="739" y="-337"/>
      <point x="739" y="-292" type="curve" smooth="yes"/>
      <point x="739" y="1331" type="line" smooth="yes"/>
      <point x="739" y="1376"/>
      <point x="706" y="1394"/>
      <point x="621" y="1394" type="curve" smooth="yes"/>
    </contour>
  </outline>
</glyph>
<glyph name="asciitilde" format="1">
  <advance width="1228"/>
  <unicode hex="007E"/>
  <outline>
    <contour>
      <point x="307" y="765"/>
      <point x="218" y="703"/>
      <point x="142" y="590" type="curve" smooth="yes"/>
      <point x="118" y="554"/>
      <point x="127" y="517"/>
      <point x="176" y="474" type="curve" smooth="yes"/>
      <point x="225" y="431"/>
      <point x="262" y="426"/>
      <point x="290" y="456" type="curve" smooth="yes"/>
      <point x="331" y="500"/>
      <point x="369" y="522"/>
      <point x="422" y="522" type="curve" smooth="yes"/>
      <point x="535" y="522"/>
      <point x="647" y="396"/>
      <point x="798" y="396" type="curve" smooth="yes"/>
      <point x="921" y="396"/>
      <point x="1010" y="458"/>
      <point x="1086" y="571" type="curve" smooth="yes"/>
      <point x="1110" y="607"/>
      <point x="1101" y="644"/>
      <point x="1052" y="687" type="curve" smooth="yes"/>
      <point x="1003" y="730"/>
      <point x="966" y="735"/>
      <point x="938" y="705" type="curve" smooth="yes"/>
      <point x="897" y="661"/>
      <point x="859" y="639"/>
      <point x="806" y="639" type="curve" smooth="yes"/>
      <point x="690" y="639"/>
      <point x="581" y="765"/>
      <point x="430" y="765" type="curve" smooth="yes"/>
    </contour>
  </outline>
</glyph>
<glyph name="cent" format="1">
  <advance width="1228"/>
  <unicode hex="00A2"/>
  <outline>
    <contour>
      <point x="543" y="1312"/>
      <point x="525" y="1294"/>
      <point x="525" y="1249" type="curve" smooth="yes"/>
      <point x="525" y="-62" type="line" smooth="yes"/>
      <point x="525" y="-107"/>
      <point x="543" y="-125"/>
      <point x="618" y="-125" type="curve" smooth="yes"/>
      <point x="693" y="-125"/>
      <point x="711" y="-107"/>
      <point x="711" y="-62" type="curve" smooth="yes"/>
      <point x="711" y="1249" type="line" smooth="yes"/>
      <point x="711" y="1294"/>
      <point x="693" y="1312"/>
      <point x="618" y="1312" type="curve" smooth="yes"/>
    </contour>
    <component base="c" yOffset="140"/>
  </outline>
</glyph>
<glyph name="sterling" format="1">
  <advance width="1228"/>
  <unicode hex="00A3"/>
  <outline>
    <contour>
      <point x="378" y="1209"/>
      <point x="241" y="1061"/>
      <point x="241" y="867" type="curve" smooth="yes"/>
      <point x="241" y="781"/>
      <point x="274" y="714"/>
      <point x="308" y="650" type="curve"/>
      <point x="213" y="650" type="line" smooth="yes"/>
      <point x="168" y="650"/>
      <point x="150" y="632"/>
      <point x="150" y="537" type="curve" smooth="yes"/>
      <point x="150" y="442"/>
      <point x="168" y="425"/>
      <point x="213" y="425" type="curve" smooth="yes"/>
      <point x="375" y="425" type="line"/>
      <point x="369" y="315"/>
      <point x="309" y="247"/>
      <point x="199" y="161" type="curve" smooth="yes"/>
      <point x="167" y="137"/>
      <point x="176" y="80"/>
      <point x="199" y="34" type="curve" smooth="yes"/>
      <point x="222" y="-11"/>
      <point x="259" y="-46"/>
      <point x="287" y="-34" type="curve" smooth="yes"/>
      <point x="374" y="2"/>
      <point x="451" y="13"/>
      <point x="515" y="13" type="curve" smooth="yes"/>
      <point x="632" y="13"/>
      <point x="722" y="-24"/>
      <point x="818" y="-24" type="curve" smooth="yes"/>
      <point x="885" y="-24"/>
      <point x="956" y="-6"/>
      <point x="1040" y="56" type="curve" smooth="yes"/>
      <point x="1071" y="78"/>
      <point x="1064" y="136"/>
      <point x="1042" y="184" type="curve" smooth="yes"/>
      <point x="1020" y="231"/>
      <point x="983" y="267"/>
      <point x="951" y="251" type="curve" smooth="yes"/>
      <point x="898" y="225"/>
      <point x="856" y="218"/>
      <point x="818" y="218" type="curve" smooth="yes"/>
      <point x="761" y="218"/>
      <point x="713" y="235"/>
      <point x="650" y="235" type="curve" smooth="yes"/>
      <point x="610" y="235"/>
      <point x="565" y="228"/>
      <point x="509" y="207" type="curve"/>
      <point x="572" y="275"/>
      <point x="613" y="344"/>
      <point x="624" y="425" type="curve"/>
      <point x="865" y="425" type="line" smooth="yes"/>
      <point x="910" y="425"/>
      <point x="928" y="442"/>
      <point x="928" y="537" type="curve" smooth="yes"/>
      <point x="928" y="632"/>
      <point x="910" y="650"/>
      <point x="865" y="650" type="curve" smooth="yes"/>
      <point x="577" y="650" type="line"/>
      <point x="540" y="719"/>
      <point x="495" y="777"/>
      <point x="495" y="858" type="curve" smooth="yes"/>
      <point x="495" y="939"/>
      <point x="544" y="992"/>
      <point x="628" y="992" type="curve" smooth="yes"/>
      <point x="686" y="992"/>
      <point x="730" y="981"/>
      <point x="771" y="961" type="curve"/>
      <point x="771" y="850" type="line" smooth="yes"/>
      <point x="771" y="805"/>
      <point x="794" y="787"/>
      <point x="879" y="787" type="curve" smooth="yes"/>
      <point x="964" y="787"/>
      <point x="1001" y="805"/>
      <point x="1001" y="850" type="curve" smooth="yes"/>
      <point x="1001" y="1057" type="line" smooth="yes"/>
      <point x="1001" y="1086"/>
      <point x="984" y="1105"/>
      <point x="955" y="1120" type="curve" smooth="yes"/>
      <point x="840" y="1179"/>
      <point x="727" y="1209"/>
      <point x="620" y="1209" type="curve" smooth="yes"/>
    </contour>
  </outline>
</glyph>
<glyph name="yen" format="1">
  <advance width="1228"/>
  <unicode hex="00A5"/>
  <outline>
    <contour>
      <point x="751" y="1187" type="line" smooth="yes"/>
      <point x="706" y="1187"/>
      <point x="688" y="1169"/>
      <point x="688" y="1084" type="curve" smooth="yes"/>
      <point x="688" y="999"/>
      <point x="706" y="982"/>
      <point x="751" y="982" type="curve" smooth="yes"/>
      <point x="804" y="982" type="line"/>
      <point x="616" y="690" type="line"/>
      <point x="430" y="982" type="line"/>
      <point x="497" y="982" type="line" smooth="yes"/>
      <point x="542" y="982"/>
      <point x="560" y="999"/>
      <point x="560" y="1084" type="curve" smooth="yes"/>
      <point x="560" y="1169"/>
      <point x="542" y="1187"/>
      <point x="497" y="1187" type="curve" smooth="yes"/>
      <point x="103" y="1187" type="line" smooth="yes"/>
      <point x="58" y="1187"/>
      <point x="40" y="1169"/>
      <point x="40" y="1084" type="curve" smooth="yes"/>
      <point x="40" y="999"/>
      <point x="58" y="982"/>
      <point x="103" y="982" type="curve" smooth="yes"/>
      <point x="149" y="982" type="line"/>
      <point x="241" y="840" type="line"/>
      <point x="183" y="840" type="line" smooth="yes"/>
      <point x="138" y="840"/>
      <point x="120" y="822"/>
      <point x="120" y="747" type="curve" smooth="yes"/>
      <point x="120" y="672"/>
      <point x="138" y="655"/>
      <point x="183" y="655" type="curve" smooth="yes"/>
      <point x="362" y="655" type="line"/>
      <point x="455" y="512" type="line"/>
      <point x="203" y="512" type="line" smooth="yes"/>
      <point x="158" y="512"/>
      <point x="140" y="494"/>
      <point x="140" y="419" type="curve" smooth="yes"/>
      <point x="140" y="344"/>
      <point x="158" y="327"/>
      <point x="203" y="327" type="curve" smooth="yes"/>
      <point x="489" y="327" type="line"/>
      <point x="489" y="205" type="line"/>
      <point x="293" y="205" type="line" smooth="yes"/>
      <point x="248" y="205"/>
      <point x="230" y="187"/>
      <point x="230" y="102" type="curve" smooth="yes"/>
      <point x="230" y="17"/>
      <point x="248" y="0"/>
      <point x="293" y="0" type="curve" smooth="yes"/>
      <point x="935" y="0" type="line" smooth="yes"/>
      <point x="980" y="0"/>
      <point x="998" y="17"/>
      <point x="998" y="102" type="curve" smooth="yes"/>
      <point x="998" y="187"/>
      <point x="980" y="205"/>
      <point x="935" y="205" type="curve" smooth="yes"/>
      <point x="739" y="205" type="line"/>
      <point x="739" y="327" type="line"/>
      <point x="1025" y="327" type="line" smooth="yes"/>
      <point x="1070" y="327"/>
      <point x="1088" y="344"/>
      <point x="1088" y="419" type="curve" smooth="yes"/>
      <point x="1088" y="494"/>
      <point x="1070" y="512"/>
      <point x="1025" y="512" type="curve" smooth="yes"/>
      <point x="773" y="512" type="line"/>
      <point x="867" y="655" type="line"/>
      <point x="1045" y="655" type="line" smooth="yes"/>
      <point x="1090" y="655"/>
      <point x="1108" y="672"/>
      <point x="1108" y="747" type="curve" smooth="yes"/>
      <point x="1108" y="822"/>
      <point x="1090" y="840"/>
      <point x="1045" y="840" type="curve" smooth="yes"/>
      <point x="988" y="840" type="line"/>
      <point x="1081" y="982" type="line"/>
      <point x="1125" y="982" type="line" smooth="yes"/>
      <point x="1170" y="982"/>
      <point x="1188" y="999"/>
      <point x="1188" y="1084" type="curve" smooth="yes"/>
      <point x="1188" y="1169"/>
      <point x="1170" y="1187"/>
      <point x="1125" y="1187" type="curve" smooth="yes"/>
    </contour>
  </outline>
</glyph>
<glyph name="ordfeminine" format="1">
  <advance width="1228"/>
  <unicode hex="00AA"/>
  <outline>
    <contour>
      <point x="524" y="1209"/>
      <point x="414" y="1191"/>
      <point x="318" y="1156" type="curve" smooth="yes"/>
      <point x="277" y="1142"/>
      <point x="278" y="1104"/>
      <point x="293" y="1060" type="curve" smooth="yes"/>
      <point x="313" y="1001"/>
      <point x="337" y="981"/>
      <point x="378" y="994" type="curve" smooth="yes"/>
      <point x="448" y="1017"/>
      <point x="525" y="1035"/>
      <point x="586" y="1035" type="curve" smooth="yes"/>
      <point x="698" y="1035"/>
      <point x="735" y="998"/>
      <point x="735" y="934" type="curve" smooth="yes"/>
      <point x="735" y="912" type="line"/>
      <point x="658" y="927"/>
      <point x="586" y="935"/>
      <point x="518" y="935" type="curve" smooth="yes"/>
      <point x="336" y="935"/>
      <point x="229" y="852"/>
      <point x="229" y="709" type="curve" smooth="yes"/>
      <point x="229" y="559"/>
      <point x="332" y="465"/>
      <point x="508" y="465" type="curve" smooth="yes"/>
      <point x="606" y="465"/>
      <point x="698" y="503"/>
      <point x="776" y="563" type="curve"/>
      <point x="803" y="505"/>
      <point x="855" y="482"/>
      <point x="916" y="482" type="curve" smooth="yes"/>
      <point x="1002" y="482" type="line" smooth="yes"/>
      <point x="1037" y="482"/>
      <point x="1051" y="495"/>
      <point x="1051" y="560" type="curve" smooth="yes"/>
      <point x="1051" y="626"/>
      <point x="1037" y="640"/>
      <point x="1002" y="640" type="curve" smooth="yes"/>
      <point x="978" y="640" type="line" smooth="yes"/>
      <point x="945" y="640"/>
      <point x="928" y="664"/>
      <point x="928" y="705" type="curve" smooth="yes"/>
      <point x="928" y="927" type="line" smooth="yes"/>
      <point x="928" y="1100"/>
      <point x="842" y="1209"/>
      <point x="608" y="1209" type="curve" smooth="yes"/>
    </contour>
    <contour>
      <point x="599" y="776"/>
      <point x="664" y="770"/>
      <point x="735" y="756" type="curve"/>
      <point x="735" y="706" type="line"/>
      <point x="678" y="660"/>
      <point x="606" y="627"/>
      <point x="533" y="627" type="curve" smooth="yes"/>
      <point x="465" y="627"/>
      <point x="427" y="653"/>
      <point x="427" y="701" type="curve" smooth="yes"/>
      <point x="427" y="749"/>
      <point x="465" y="776"/>
      <point x="537" y="776" type="curve" smooth="yes"/>
    </contour>
  </outline>
</glyph>
<glyph name="macron" format="1">
  <advance width="1228"/>
  <unicode hex="00AF"/>
  <outline>
    <contour>
      <point x="343" y="1275" type="line" smooth="yes"/>
      <point x="298" y="1275"/>
      <point x="280" y="1257"/>
      <point x="280" y="1172" type="curve" smooth="yes"/>
      <point x="280" y="1087"/>
      <point x="298" y="1070"/>
      <point x="343" y="1070" type="curve" smooth="yes"/>
      <point x="885" y="1070" type="line" smooth="yes"/>
      <point x="930" y="1070"/>
      <point x="948" y="1087"/>
      <point x="948" y="1172" type="curve" smooth="yes"/>
      <point x="948" y="1257"/>
      <point x="930" y="1275"/>
      <point x="885" y="1275" type="curve" smooth="yes"/>
    </contour>
  </outline>
</glyph>
<glyph name="cedilla" format="1">
  <advance width="1228"/>
  <unicode hex="00B8"/>
  <outline>
    <contour>
      <point x="509" y="28" type="line"/>
      <point x="509" y="-176" type="line" smooth="yes"/>
      <point x="509" y="-205"/>
      <point x="524" y="-219"/>
      <point x="551" y="-217" type="curve" smooth="yes"/>
      <point x="622" y="-212"/>
      <point x="684" y="-216"/>
      <point x="684" y="-262" type="curve" smooth="yes"/>
      <point x="684" y="-297"/>
      <point x="653" y="-313"/>
      <point x="588" y="-313" type="curve" smooth="yes"/>
      <point x="527" y="-313"/>
      <point x="475" y="-301"/>
      <point x="427" y="-284" type="curve" smooth="yes"/>
      <point x="401" y="-275"/>
      <point x="380" y="-295"/>
      <point x="361" y="-346" type="curve" smooth="yes"/>
      <point x="343" y="-393"/>
      <point x="350" y="-420"/>
      <point x="375" y="-430" type="curve" smooth="yes"/>
      <point x="445" y="-457"/>
      <point x="534" y="-472"/>
      <point x="631" y="-472" type="curve" smooth="yes"/>
      <point x="814" y="-472"/>
      <point x="910" y="-400"/>
      <point x="910" y="-273" type="curve" smooth="yes"/>
      <point x="910" y="-165"/>
      <point x="843" y="-83"/>
      <point x="694" y="-83" type="curve"/>
      <point x="694" y="28" type="line"/>
    </contour>
  </outline>
</glyph>
<glyph name="ordmasculine" format="1">
  <advance width="1228"/>
  <unicode hex="00BA"/>
  <outline>
    <contour>
      <point x="377" y="1209"/>
      <point x="224" y="1052"/>
      <point x="224" y="837" type="curve" smooth="yes"/>
      <point x="224" y="622"/>
      <point x="377" y="465"/>
      <point x="614" y="465" type="curve" smooth="yes"/>
      <point x="852" y="465"/>
      <point x="1004" y="622"/>
      <point x="1004" y="837" type="curve" smooth="yes"/>
      <point x="1004" y="1052"/>
      <point x="852" y="1209"/>
      <point x="614" y="1209" type="curve" smooth="yes"/>
    </contour>
    <contour>
      <point x="726" y="1035"/>
      <point x="798" y="957"/>
      <point x="798" y="837" type="curve" smooth="yes"/>
      <point x="798" y="717"/>
      <point x="726" y="640"/>
      <point x="614" y="640" type="curve" smooth="yes"/>
      <point x="503" y="640"/>
      <point x="430" y="717"/>
      <point x="430" y="837" type="curve" smooth="yes"/>
      <point x="430" y="957"/>
      <point x="503" y="1035"/>
      <point x="614" y="1035" type="curve" smooth="yes"/>
    </contour>
  </outline>
</glyph>
<glyph name="onequarter" format="1">
  <advance width="1228"/>
  <unicode hex="00BC"/>
  <outline>
    <contour>
      <point x="995" y="499"/>
      <point x="969" y="486"/>
      <point x="951" y="463" type="curve" smooth="yes"/>
      <point x="641" y="85" type="line" smooth="yes"/>
      <point x="631" y="71"/>
      <point x="627" y="60"/>
      <point x="627" y="40" type="curve" smooth="yes"/>
      <point x="627" y="-6"/>
      <point x="655" y="-60"/>
      <point x="680" y="-60" type="curve" smooth="yes"/>
      <point x="970" y="-60" type="line"/>
      <point x="970" y="-178" type="line" smooth="yes"/>
      <point x="970" y="-204"/>
      <point x="995" y="-218"/>
      <point x="1060" y="-218" type="curve" smooth="yes"/>
      <point x="1119" y="-218"/>
      <point x="1133" y="-204"/>
      <point x="1133" y="-178" type="curve" smooth="yes"/>
      <point x="1133" y="-60" type="line"/>
      <point x="1208" y="-60" type="line" smooth="yes"/>
      <point x="1238" y="-60"/>
      <point x="1251" y="-39"/>
      <point x="1251" y="10" type="curve" smooth="yes"/>
      <point x="1251" y="59"/>
      <point x="1238" y="81"/>
      <point x="1208" y="81" type="curve" smooth="yes"/>
      <point x="1133" y="81" type="line"/>
      <point x="1133" y="452" type="line" smooth="yes"/>
      <point x="1133" y="481"/>
      <point x="1104" y="499"/>
      <point x="1043" y="499" type="curve" smooth="yes"/>
    </contour>
    <contour>
      <point x="970" y="81" type="line"/>
      <point x="820" y="81" type="line"/>
      <point x="975" y="280" type="line"/>
    </contour>
    <contour>
      <point x="7" y="1265" type="line" smooth="yes"/>
      <point x="-26" y="1249"/>
      <point x="-27" y="1220"/>
      <point x="-7" y="1176" type="curve" smooth="yes"/>
      <point x="17" y="1124"/>
      <point x="43" y="1119"/>
      <point x="72" y="1134" type="curve" smooth="yes"/>
      <point x="285" y="1245" type="line"/>
      <point x="188" y="1300" type="line"/>
      <point x="188" y="826" type="line"/>
      <point x="31" y="826" type="line" smooth="yes"/>
      <point x="0" y="826"/>
      <point x="-12" y="805"/>
      <point x="-12" y="755" type="curve" smooth="yes"/>
      <point x="-12" y="705"/>
      <point x="-1" y="684"/>
      <point x="31" y="684" type="curve" smooth="yes"/>
      <point x="502" y="684" type="line" smooth="yes"/>
      <point x="532" y="684"/>
      <point x="545" y="705"/>
      <point x="545" y="755" type="curve" smooth="yes"/>
      <point x="545" y="805"/>
      <point x="532" y="826"/>
      <point x="502" y="826" type="curve" smooth="yes"/>
      <point x="350" y="826" type="line"/>
      <point x="350" y="1346" type="line" smooth="yes"/>
      <point x="350" y="1392"/>
      <point x="299" y="1405"/>
      <point x="264" y="1388" type="curve" smooth="yes"/>
    </contour>
    <contour>
      <point x="105" y="319" type="line" smooth="yes"/>
      <point x="77" y="303"/>
      <point x="79" y="276"/>
      <point x="109" y="230" type="curve" smooth="yes"/>
      <point x="139" y="184"/>
      <point x="162" y="178"/>
      <point x="185" y="190" type="curve" smooth="yes"/>
      <point x="1122" y="711" type="line" smooth="yes"/>
      <point x="1150" y="727"/>
      <point x="1148" y="754"/>
      <point x="1118" y="800" type="curve" smooth="yes"/>
      <point x="1088" y="846"/>
      <point x="1065" y="852"/>
      <point x="1042" y="840" type="curve" smooth="yes"/>
    </contour>
  </outline>
</glyph>
<glyph name="multiply" format="1">
  <advance width="1228"/>
  <unicode hex="00D7"/>
  <outline>
    <contour>
      <point x="614" y="741" type="line"/>
      <point x="394" y="961" type="line" smooth="yes"/>
      <point x="363" y="993"/>
      <point x="337" y="993"/>
      <point x="270" y="926" type="curve" smooth="yes"/>
      <point x="203" y="859"/>
      <point x="204" y="834"/>
      <point x="235" y="802" type="curve" smooth="yes"/>
      <point x="455" y="582" type="line"/>
      <point x="235" y="362" type="line" smooth="yes"/>
      <point x="203" y="331"/>
      <point x="203" y="305"/>
      <point x="270" y="238" type="curve" smooth="yes"/>
      <point x="337" y="171"/>
      <point x="362" y="172"/>
      <point x="394" y="203" type="curve" smooth="yes"/>
      <point x="614" y="423" type="line"/>
      <point x="834" y="203" type="line" smooth="yes"/>
      <point x="866" y="172"/>
      <point x="891" y="171"/>
      <point x="958" y="238" type="curve" smooth="yes"/>
      <point x="1025" y="305"/>
      <point x="1025" y="331"/>
      <point x="993" y="362" type="curve" smooth="yes"/>
      <point x="773" y="582" type="line"/>
      <point x="993" y="802" type="line" smooth="yes"/>
      <point x="1024" y="834"/>
      <point x="1025" y="859"/>
      <point x="958" y="926" type="curve" smooth="yes"/>
      <point x="891" y="993"/>
      <point x="865" y="993"/>
      <point x="834" y="961" type="curve" smooth="yes"/>
    </contour>
  </outline>
</glyph>
<glyph name="eth" format="1">
  <advance width="1228"/>
  <unicode hex="00F0"/>
  <outline>
    <contour>
      <point x="305" y="866"/>
      <point x="122" y="682"/>
      <point x="122" y="422" type="curve" smooth="yes"/>
      <point x="122" y="162"/>
      <point x="315" y="-22"/>
      <point x="614" y="-22" type="curve" smooth="yes"/>
      <point x="913" y="-22"/>
      <point x="1106" y="162"/>
      <point x="1106" y="462" type="curve"/>
      <point x="839" y="767" type="line"/>
      <point x="768" y="832"/>
      <point x="686" y="866"/>
      <point x="584" y="866" type="curve" smooth="yes"/>
    </contour>
    <contour>
      <point x="749" y="639"/>
      <point x="838" y="558"/>
      <point x="838" y="422" type="curve" smooth="yes"/>
      <point x="838" y="286"/>
      <point x="749" y="205"/>
      <point x="614" y="205" type="curve" smooth="yes"/>
      <point x="479" y="205"/>
      <point x="390" y="286"/>
      <point x="390" y="422" type="curve" smooth="yes"/>
      <point x="390" y="558"/>
      <point x="479" y="639"/>
      <point x="614" y="639" type="curve" smooth="yes"/>
    </contour>
    <contour>
      <point x="468" y="1361"/>
      <point x="434" y="1352"/>
      <point x="385" y="1277" type="curve" smooth="yes"/>
      <point x="334" y="1198"/>
      <point x="336" y="1158"/>
      <point x="378" y="1137" type="curve" smooth="yes"/>
      <point x="609" y="1023"/>
      <point x="862" y="834"/>
      <point x="886" y="480" type="curve"/>
      <point x="1106" y="462" type="line"/>
      <point x="1106" y="834"/>
      <point x="904" y="1142"/>
      <point x="510" y="1340" type="curve" smooth="yes"/>
    </contour>
    <contour>
      <point x="380" y="1067" type="line" smooth="yes"/>
      <point x="340" y="1046"/>
      <point x="333" y="1021"/>
      <point x="368" y="955" type="curve" smooth="yes"/>
      <point x="403" y="889"/>
      <point x="427" y="882"/>
      <point x="467" y="903" type="curve" smooth="yes"/>
      <point x="928" y="1148" type="line" smooth="yes"/>
      <point x="967" y="1169"/>
      <point x="975" y="1193"/>
      <point x="940" y="1259" type="curve" smooth="yes"/>
      <point x="905" y="1325"/>
      <point x="881" y="1333"/>
      <point x="841" y="1312" type="curve" smooth="yes"/>
    </contour>
  </outline>
</glyph>
<glyph name="eogonek" format="1">
  <advance width="1228"/>
  <unicode hex="0119"/>
  <outline>
    <contour>
      <point x="319" y="946"/>
      <point x="131" y="742"/>
      <point x="131" y="462" type="curve" smooth="yes"/>
      <point x="131" y="182"/>
      <point x="307" y="-22"/>
      <point x="618" y="-22" type="curve" smooth="yes"/>
      <point x="654" y="-22"/>
      <point x="691" y="-20"/>
      <point x="727" y="-15" type="curve"/>
      <point x="632" y="-83"/>
      <point x="563" y="-162"/>
      <point x="563" y="-269" type="curve" smooth="yes"/>
      <point x="563" y="-402"/>
      <point x="653" y="-472"/>
      <point x="809" y="-472" type="curve" smooth="yes"/>
      <point x="882" y="-472"/>
      <point x="958" y="-459"/>
      <point x="1025" y="-438" type="curve" smooth="yes"/>
      <point x="1053" y="-429"/>
      <point x="1066" y="-399"/>
      <point x="1062" y="-353" type="curve" smooth="yes"/>
      <point x="1058" y="-307"/>
      <point x="1040" y="-281"/>
      <point x="1014" y="-285" type="curve" smooth="yes"/>
      <point x="971" y="-292"/>
      <point x="933" y="-298"/>
      <point x="894" y="-298" type="curve" smooth="yes"/>
      <point x="837" y="-298"/>
      <point x="806" y="-278"/>
      <point x="806" y="-231" type="curve" smooth="yes"/>
      <point x="806" y="-167"/>
      <point x="860" y="-94"/>
      <point x="948" y="-15" type="curve" smooth="yes"/>
      <point x="994" y="27"/>
      <point x="1015" y="44"/>
      <point x="1035" y="52" type="curve" smooth="yes"/>
      <point x="1076" y="69"/>
      <point x="1086" y="99"/>
      <point x="1065" y="176" type="curve" smooth="yes"/>
      <point x="1043" y="258"/>
      <point x="1017" y="273"/>
      <point x="974" y="260" type="curve" smooth="yes"/>
      <point x="849" y="222"/>
      <point x="740" y="205"/>
      <point x="638" y="205" type="curve" smooth="yes"/>
      <point x="511" y="205"/>
      <point x="424" y="262"/>
      <point x="398" y="370" type="curve"/>
      <point x="1040" y="370" type="line" smooth="yes"/>
      <point x="1085" y="370"/>
      <point x="1103" y="387"/>
      <point x="1103" y="432" type="curve" smooth="yes"/>
      <point x="1103" y="729"/>
      <point x="940" y="946"/>
      <point x="628" y="946" type="curve" smooth="yes"/>
    </contour>
    <contour>
      <point x="743" y="719"/>
      <point x="820" y="661"/>
      <point x="842" y="565" type="curve"/>
      <point x="402" y="565" type="line"/>
      <point x="431" y="669"/>
      <point x="508" y="719"/>
      <point x="628" y="719" type="curve" smooth="yes"/>
    </contour>
  </outline>
</glyph>
<glyph name="IJ" format="1">
  <advance width="1228"/>
  <unicode hex="0132"/>
  <outline>
    <contour>
      <point x="733" y="1187" type="line" smooth="yes"/>
      <point x="688" y="1187"/>
      <point x="670" y="1169"/>
      <point x="670" y="1084" type="curve" smooth="yes"/>
      <point x="670" y="999"/>
      <point x="688" y="982"/>
      <point x="733" y="982" type="curve" smooth="yes"/>
      <point x="889" y="982" type="line"/>
      <point x="889" y="313" type="line" smooth="yes"/>
      <point x="889" y="239"/>
      <point x="869" y="205"/>
      <point x="815" y="205" type="curve" smooth="yes"/>
      <point x="785" y="205"/>
      <point x="763" y="211"/>
      <point x="739" y="222" type="curve"/>
      <point x="739" y="435" type="line" smooth="yes"/>
      <point x="739" y="480"/>
      <point x="715" y="498"/>
      <point x="625" y="498" type="curve" smooth="yes"/>
      <point x="535" y="498"/>
      <point x="499" y="480"/>
      <point x="499" y="435" type="curve" smooth="yes"/>
      <point x="499" y="108" type="line" smooth="yes"/>
      <point x="499" y="85"/>
      <point x="505" y="67"/>
      <point x="518" y="59" type="curve" smooth="yes"/>
      <point x="601" y="9"/>
      <point x="717" y="-22"/>
      <point x="818" y="-22" type="curve" smooth="yes"/>
      <point x="1034" y="-22"/>
      <point x="1139" y="82"/>
      <point x="1139" y="293" type="curve" smooth="yes"/>
      <point x="1139" y="982" type="line"/>
      <point x="1185" y="982" type="line" smooth="yes"/>
      <point x="1230" y="982"/>
      <point x="1248" y="999"/>
      <point x="1248" y="1084" type="curve" smooth="yes"/>
      <point x="1248" y="1169"/>
      <point x="1230" y="1187"/>
      <point x="1185" y="1187" type="curve" smooth="yes"/>
    </contour>
    <contour>
      <point x="43" y="1187" type="line" smooth="yes"/>
      <point x="-2" y="1187"/>
      <point x="-20" y="1169"/>
      <point x="-20" y="1084" type="curve" smooth="yes"/>
      <point x="-20" y="999"/>
      <point x="-2" y="982"/>
      <point x="43" y="982" type="curve" smooth="yes"/>
      <point x="89" y="982" type="line"/>
      <point x="89" y="205" type="line"/>
      <point x="33" y="205" type="line" smooth="yes"/>
      <point x="-12" y="205"/>
      <point x="-30" y="187"/>
      <point x="-30" y="102" type="curve" smooth="yes"/>
      <point x="-30" y="17"/>
      <point x="-12" y="0"/>
      <point x="33" y="0" type="curve" smooth="yes"/>
      <point x="395" y="0" type="line" smooth="yes"/>
      <point x="440" y="0"/>
      <point x="458" y="17"/>
      <point x="458" y="102" type="curve" smooth="yes"/>
      <point x="458" y="187"/>
      <point x="440" y="205"/>
      <point x="395" y="205" type="curve" smooth="yes"/>
      <point x="339" y="205" type="line"/>
      <point x="339" y="982" type="line"/>
      <point x="385" y="982" type="line" smooth="yes"/>
      <point x="430" y="982"/>
      <point x="448" y="999"/>
      <point x="448" y="1084" type="curve" smooth="yes"/>
      <point x="448" y="1169"/>
      <point x="430" y="1187"/>
      <point x="385" y="1187" type="curve" smooth="yes"/>
    </contour>
  </outline>
</glyph>
<glyph name="Eng" format="1">
  <advance width="1228"/>
  <unicode hex="014A"/>
  <outline>
    <contour>
      <point x="760" y="1187" type="line" smooth="yes"/>
      <point x="715" y="1187"/>
      <point x="697" y="1169"/>
      <point x="697" y="1084" type="curve" smooth="yes"/>
      <point x="697" y="999"/>
      <point x="715" y="982"/>
      <point x="760" y="982" type="curve" smooth="yes"/>
      <point x="852" y="982" type="line"/>
      <point x="852" y="473" type="line"/>
      <point x="848" y="473" type="line"/>
      <point x="433" y="1160" type="line" smooth="yes"/>
      <point x="421" y="1180"/>
      <point x="402" y="1187"/>
      <point x="377" y="1187" type="curve" smooth="yes"/>
      <point x="113" y="1187" type="line" smooth="yes"/>
      <point x="68" y="1187"/>
      <point x="50" y="1169"/>
      <point x="50" y="1084" type="curve" smooth="yes"/>
      <point x="50" y="999"/>
      <point x="68" y="982"/>
      <point x="113" y="982" type="curve" smooth="yes"/>
      <point x="180" y="982" type="line"/>
      <point x="180" y="205" type="line"/>
      <point x="113" y="205" type="line" smooth="yes"/>
      <point x="68" y="205"/>
      <point x="50" y="187"/>
      <point x="50" y="102" type="curve" smooth="yes"/>
      <point x="50" y="17"/>
      <point x="68" y="0"/>
      <point x="113" y="0" type="curve" smooth="yes"/>
      <point x="517" y="0" type="line" smooth="yes"/>
      <point x="562" y="0"/>
      <point x="580" y="17"/>
      <point x="580" y="102" type="curve" smooth="yes"/>
      <point x="580" y="187"/>
      <point x="562" y="205"/>
      <point x="517" y="205" type="curve" smooth="yes"/>
      <point x="406" y="205" type="line"/>
      <point x="406" y="776" type="line"/>
      <point x="410" y="776" type="line"/>
      <point x="838" y="67" type="line"/>
      <point x="838" y="-39" type="line" smooth="yes"/>
      <point x="838" y="-135"/>
      <point x="794" y="-173"/>
      <point x="709" y="-173" type="curve" smooth="yes"/>
      <point x="672" y="-173"/>
      <point x="616" y="-162"/>
      <point x="568" y="-147" type="curve" smooth="yes"/>
      <point x="527" y="-134"/>
      <point x="495" y="-153"/>
      <point x="474" y="-235" type="curve" smooth="yes"/>
      <point x="453" y="-319"/>
      <point x="463" y="-353"/>
      <point x="507" y="-370" type="curve" smooth="yes"/>
      <point x="575" y="-396"/>
      <point x="651" y="-410"/>
      <point x="716" y="-410" type="curve" smooth="yes"/>
      <point x="955" y="-410"/>
      <point x="1078" y="-292"/>
      <point x="1078" y="-55" type="curve" smooth="yes"/>
      <point x="1078" y="982" type="line"/>
      <point x="1135" y="982" type="line" smooth="yes"/>
      <point x="1180" y="982"/>
      <point x="1198" y="999"/>
      <point x="1198" y="1084" type="curve" smooth="yes"/>
      <point x="1198" y="1169"/>
      <point x="1180" y="1187"/>
      <point x="1135" y="1187" type="curve" smooth="yes"/>
    </contour>
  </outline>
</glyph>
<glyph name="eng" format="1">
  <advance width="1228"/>
  <unicode hex="014B"/>
  <outline>
    <contour>
      <point x="662" y="946"/>
      <point x="550" y="878"/>
      <point x="457" y="716" type="curve"/>
      <point x="457" y="861" type="line" smooth="yes"/>
      <point x="457" y="906"/>
      <point x="439" y="924"/>
      <point x="394" y="924" type="curve" smooth="yes"/>
      <point x="150" y="924" type="line" smooth="yes"/>
      <point x="105" y="924"/>
      <point x="87" y="906"/>
      <point x="87" y="821" type="curve" smooth="yes"/>
      <point x="87" y="736"/>
      <point x="105" y="719"/>
      <point x="150" y="719" type="curve" smooth="yes"/>
      <point x="247" y="719" type="line"/>
      <point x="247" y="205" type="line"/>
      <point x="170" y="205" type="line" smooth="yes"/>
      <point x="125" y="205"/>
      <point x="107" y="187"/>
      <point x="107" y="102" type="curve" smooth="yes"/>
      <point x="107" y="17"/>
      <point x="125" y="0"/>
      <point x="170" y="0" type="curve" smooth="yes"/>
      <point x="544" y="0" type="line" smooth="yes"/>
      <point x="589" y="0"/>
      <point x="607" y="17"/>
      <point x="607" y="102" type="curve" smooth="yes"/>
      <point x="607" y="187"/>
      <point x="589" y="205"/>
      <point x="544" y="205" type="curve" smooth="yes"/>
      <point x="497" y="205" type="line"/>
      <point x="497" y="368" type="line" smooth="yes"/>
      <point x="497" y="556"/>
      <point x="603" y="719"/>
      <point x="722" y="719" type="curve" smooth="yes"/>
      <point x="810" y="719"/>
      <point x="839" y="659"/>
      <point x="839" y="561" type="curve" smooth="yes"/>
      <point x="839" y="-39" type="line" smooth="yes"/>
      <point x="839" y="-135"/>
      <point x="801" y="-173"/>
      <point x="720" y="-173" type="curve" smooth="yes"/>
      <point x="683" y="-173"/>
      <point x="627" y="-162"/>
      <point x="579" y="-147" type="curve" smooth="yes"/>
      <point x="538" y="-134"/>
      <point x="506" y="-153"/>
      <point x="485" y="-235" type="curve" smooth="yes"/>
      <point x="464" y="-319"/>
      <point x="474" y="-353"/>
      <point x="518" y="-370" type="curve" smooth="yes"/>
      <point x="586" y="-396"/>
      <point x="662" y="-410"/>
      <point x="727" y="-410" type="curve" smooth="yes"/>
      <point x="966" y="-410"/>
      <point x="1089" y="-292"/>
      <point x="1089" y="-55" type="curve" smooth="yes"/>
      <point x="1089" y="620" type="line" smooth="yes"/>
      <point x="1089" y="820"/>
      <point x="971" y="946"/>
      <point x="787" y="946" type="curve" smooth="yes"/>
    </contour>
  </outline>
</glyph>
<glyph name="oe" format="1">
  <advance width="1228"/>
  <unicode hex="0153"/>
  <outline>
    <contour>
      <point x="762" y="946"/>
      <point x="679" y="904"/>
      <point x="620" y="836" type="curve"/>
      <point x="568" y="905"/>
      <point x="486" y="946"/>
      <point x="384" y="946" type="curve" smooth="yes"/>
      <point x="125" y="946"/>
      <point x="27" y="742"/>
      <point x="27" y="462" type="curve" smooth="yes"/>
      <point x="27" y="182"/>
      <point x="125" y="-22"/>
      <point x="384" y="-22" type="curve" smooth="yes"/>
      <point x="485" y="-22"/>
      <point x="564" y="19"/>
      <point x="616" y="84" type="curve"/>
      <point x="669" y="19"/>
      <point x="754" y="-22"/>
      <point x="863" y="-22" type="curve" smooth="yes"/>
      <point x="962" y="-22"/>
      <point x="1060" y="10"/>
      <point x="1145" y="49" type="curve" smooth="yes"/>
      <point x="1191" y="70"/>
      <point x="1201" y="108"/>
      <point x="1176" y="179" type="curve" smooth="yes"/>
      <point x="1155" y="241"/>
      <point x="1125" y="277"/>
      <point x="1076" y="255" type="curve" smooth="yes"/>
      <point x="1007" y="224"/>
      <point x="947" y="205"/>
      <point x="878" y="205" type="curve" smooth="yes"/>
      <point x="790" y="205"/>
      <point x="740" y="262"/>
      <point x="724" y="370" type="curve"/>
      <point x="1130" y="370" type="line" smooth="yes"/>
      <point x="1175" y="370"/>
      <point x="1193" y="387"/>
      <point x="1193" y="432" type="curve" smooth="yes"/>
      <point x="1193" y="729"/>
      <point x="1116" y="946"/>
      <point x="858" y="946" type="curve" smooth="yes"/>
    </contour>
    <contour>
      <point x="470" y="719"/>
      <point x="503" y="638"/>
      <point x="503" y="462" type="curve" smooth="yes"/>
      <point x="503" y="286"/>
      <point x="470" y="205"/>
      <point x="384" y="205" type="curve" smooth="yes"/>
      <point x="298" y="205"/>
      <point x="265" y="286"/>
      <point x="265" y="462" type="curve" smooth="yes"/>
      <point x="265" y="638"/>
      <point x="298" y="719"/>
      <point x="384" y="719" type="curve" smooth="yes"/>
    </contour>
    <contour>
      <point x="929" y="719"/>
      <point x="965" y="661"/>
      <point x="968" y="565" type="curve"/>
      <point x="724" y="565" type="line"/>
      <point x="738" y="665"/>
      <point x="781" y="719"/>
      <point x="858" y="719" type="curve" smooth="yes"/>
    </contour>
  </outline>
</glyph>
<glyph name="Tbar" format="1">
  <advance width="1228"/>
  <unicode hex="0166"/>
  <outline>
    <contour>
      <point x="163" y="1187" type="line" smooth="yes"/>
      <point x="117" y="1187"/>
      <point x="98" y="1168"/>
      <point x="98" y="1122" type="curve" smooth="yes"/>
      <point x="98" y="700" type="line" smooth="yes"/>
      <point x="98" y="655"/>
      <point x="121" y="637"/>
      <point x="196" y="637" type="curve" smooth="yes"/>
      <point x="271" y="637"/>
      <point x="308" y="655"/>
      <point x="308" y="700" type="curve" smooth="yes"/>
      <point x="308" y="972" type="line"/>
      <point x="489" y="972" type="line"/>
      <point x="489" y="565" type="line"/>
      <point x="333" y="565" type="line" smooth="yes"/>
      <point x="288" y="565"/>
      <point x="270" y="547"/>
      <point x="270" y="462" type="curve" smooth="yes"/>
      <point x="270" y="377"/>
      <point x="288" y="360"/>
      <point x="333" y="360" type="curve" smooth="yes"/>
      <point x="489" y="360" type="line"/>
      <point x="489" y="205" type="line"/>
      <point x="273" y="205" type="line" smooth="yes"/>
      <point x="228" y="205"/>
      <point x="210" y="187"/>
      <point x="210" y="102" type="curve" smooth="yes"/>
      <point x="210" y="17"/>
      <point x="228" y="0"/>
      <point x="273" y="0" type="curve" smooth="yes"/>
      <point x="955" y="0" type="line" smooth="yes"/>
      <point x="1000" y="0"/>
      <point x="1018" y="17"/>
      <point x="1018" y="102" type="curve" smooth="yes"/>
      <point x="1018" y="187"/>
      <point x="1000" y="205"/>
      <point x="955" y="205" type="curve" smooth="yes"/>
      <point x="739" y="205" type="line"/>
      <point x="739" y="360" type="line"/>
      <point x="895" y="360" type="line" smooth="yes"/>
      <point x="940" y="360"/>
      <point x="958" y="377"/>
      <point x="958" y="462" type="curve" smooth="yes"/>
      <point x="958" y="547"/>
      <point x="940" y="565"/>
      <point x="895" y="565" type="curve" smooth="yes"/>
      <point x="739" y="565" type="line"/>
      <point x="739" y="972" type="line"/>
      <point x="920" y="972" type="line"/>
      <point x="920" y="700" type="line" smooth="yes"/>
      <point x="920" y="655"/>
      <point x="943" y="637"/>
      <point x="1018" y="637" type="curve" smooth="yes"/>
      <point x="1093" y="637"/>
      <point x="1130" y="655"/>
      <point x="1130" y="700" type="curve" smooth="yes"/>
      <point x="1130" y="1122" type="line" smooth="yes"/>
      <point x="1130" y="1168"/>
      <point x="1111" y="1187"/>
      <point x="1065" y="1187" type="curve" smooth="yes"/>
    </contour>
  </outline>
</glyph>
<glyph name="tbar" format="1">
  <advance width="1228"/>
  <unicode hex="0167"/>
  <outline>
    <contour>
      <point x="243" y="545" type="line" smooth="yes"/>
      <point x="198" y="545"/>
      <point x="180" y="527"/>
      <point x="180" y="442" type="curve" smooth="yes"/>
      <point x="180" y="357"/>
      <point x="198" y="340"/>
      <point x="243" y="340" type="curve" smooth="yes"/>
      <point x="805" y="340" type="line" smooth="yes"/>
      <point x="850" y="340"/>
      <point x="868" y="357"/>
      <point x="868" y="442" type="curve" smooth="yes"/>
      <point x="868" y="527"/>
      <point x="850" y="545"/>
      <point x="805" y="545" type="curve" smooth="yes"/>
    </contour>
    <component base="t"/>
  </outline>
</glyph>
<glyph name="circumflex" format="1">
  <advance width="1228"/>
  <unicode hex="02C6"/>
  <outline>
    <contour>
      <point x="578" y="1410"/>
      <point x="560" y="1402"/>
      <point x="543" y="1387" type="curve" smooth="yes"/>
      <point x="278" y="1162" type="line" smooth="yes"/>
      <point x="249" y="1138"/>
      <point x="248" y="1107"/>
      <point x="281" y="1060" type="curve" smooth="yes"/>
      <point x="314" y="1013"/>
      <point x="342" y="1009"/>
      <point x="374" y="1028" type="curve" smooth="yes"/>
      <point x="614" y="1166" type="line"/>
      <point x="854" y="1028" type="line" smooth="yes"/>
      <point x="886" y="1009"/>
      <point x="914" y="1013"/>
      <point x="947" y="1060" type="curve" smooth="yes"/>
      <point x="980" y="1107"/>
      <point x="979" y="1138"/>
      <point x="950" y="1162" type="curve" smooth="yes"/>
      <point x="685" y="1387" type="line" smooth="yes"/>
      <point x="668" y="1402"/>
      <point x="650" y="1410"/>
      <point x="614" y="1410" type="curve" smooth="yes"/>
    </contour>
  </outline>
</glyph>
<glyph name="dotaccent" format="1">
  <advance width="1228"/>
  <unicode hex="02D9"/>
  <outline>
    <contour>
      <point x="516" y="1363"/>
      <point x="489" y="1345"/>
      <point x="489" y="1300" type="curve" smooth="yes"/>
      <point x="489" y="1136" type="line" smooth="yes"/>
      <point x="489" y="1091"/>
      <point x="521" y="1073"/>
      <point x="616" y="1073" type="curve" smooth="yes"/>
      <point x="711" y="1073"/>
      <point x="739" y="1091"/>
      <point x="739" y="1136" type="curve" smooth="yes"/>
      <point x="739" y="1300" type="line" smooth="yes"/>
      <point x="739" y="1345"/>
      <point x="706" y="1363"/>
      <point x="611" y="1363" type="curve" smooth="yes"/>
    </contour>
  </outline>
</glyph>
<glyph name="ogonek" format="1">
  <advance width="1228"/>
  <unicode hex="02DB"/>
  <outline>
    <contour>
      <point x="578" y="28" type="line"/>
      <point x="451" y="-51"/>
      <point x="349" y="-139"/>
      <point x="349" y="-269" type="curve" smooth="yes"/>
      <point x="349" y="-402"/>
      <point x="439" y="-472"/>
      <point x="595" y="-472" type="curve" smooth="yes"/>
      <point x="668" y="-472"/>
      <point x="745" y="-460"/>
      <point x="811" y="-438" type="curve" smooth="yes"/>
      <point x="841" y="-428"/>
      <point x="854" y="-402"/>
      <point x="850" y="-343" type="curve" smooth="yes"/>
      <point x="846" y="-280"/>
      <point x="827" y="-260"/>
      <point x="800" y="-265" type="curve" smooth="yes"/>
      <point x="760" y="-272"/>
      <point x="719" y="-278"/>
      <point x="680" y="-278" type="curve" smooth="yes"/>
      <point x="623" y="-278"/>
      <point x="592" y="-256"/>
      <point x="592" y="-211" type="curve" smooth="yes"/>
      <point x="592" y="-147"/>
      <point x="654" y="-69"/>
      <point x="785" y="28" type="curve"/>
    </contour>
  </outline>
</glyph>
<glyph name="tilde" format="1">
  <advance width="1228"/>
  <unicode hex="02DC"/>
  <outline>
    <contour>
      <point x="392" y="1371"/>
      <point x="304" y="1310"/>
      <point x="237" y="1210" type="curve" smooth="yes"/>
      <point x="219" y="1183"/>
      <point x="223" y="1144"/>
      <point x="263" y="1100" type="curve" smooth="yes"/>
      <point x="301" y="1058"/>
      <point x="335" y="1049"/>
      <point x="359" y="1074" type="curve" smooth="yes"/>
      <point x="398" y="1115"/>
      <point x="442" y="1146"/>
      <point x="488" y="1146" type="curve" smooth="yes"/>
      <point x="566" y="1146"/>
      <point x="633" y="1065"/>
      <point x="743" y="1065" type="curve" smooth="yes"/>
      <point x="836" y="1065"/>
      <point x="924" y="1126"/>
      <point x="991" y="1226" type="curve" smooth="yes"/>
      <point x="1009" y="1253"/>
      <point x="1005" y="1292"/>
      <point x="965" y="1336" type="curve" smooth="yes"/>
      <point x="927" y="1378"/>
      <point x="893" y="1387"/>
      <point x="869" y="1362" type="curve" smooth="yes"/>
      <point x="830" y="1321"/>
      <point x="786" y="1290"/>
      <point x="740" y="1290" type="curve" smooth="yes"/>
      <point x="662" y="1290"/>
      <point x="595" y="1371"/>
      <point x="485" y="1371" type="curve" smooth="yes"/>
    </contour>
  </outline>
</glyph>
<glyph name="commaaccent" format="1">
  <advance width="1228"/>
  <unicode hex="0326"/>
  <outline>
    <contour>
      <point x="531" y="-146" type="line" smooth="yes"/>
      <point x="512" y="-146"/>
      <point x="498" y="-156"/>
      <point x="495" y="-173" type="curve" smooth="yes"/>
      <point x="436" y="-479" type="line" smooth="yes"/>
      <point x="428" y="-522"/>
      <point x="455" y="-542"/>
      <point x="522" y="-544" type="curve" smooth="yes"/>
      <point x="590" y="-546"/>
      <point x="619" y="-529"/>
      <point x="633" y="-495" type="curve" smooth="yes"/>
      <point x="757" y="-189" type="line" smooth="yes"/>
      <point x="767" y="-165"/>
      <point x="760" y="-146"/>
      <point x="737" y="-146" type="curve" smooth="yes"/>
    </contour>
  </outline>
</glyph>
<glyph name="mu" format="1">
  <advance width="1228"/>
  <unicode hex="03BC"/>
  <outline>
    <contour>
      <point x="869" y="924" type="line" smooth="yes"/>
      <point x="824" y="924"/>
      <point x="806" y="906"/>
      <point x="806" y="861" type="curve" smooth="yes"/>
      <point x="806" y="506" type="line" smooth="yes"/>
      <point x="806" y="348"/>
      <point x="685" y="215"/>
      <point x="571" y="215" type="curve" smooth="yes"/>
      <point x="473" y="215"/>
      <point x="434" y="275"/>
      <point x="434" y="373" type="curve" smooth="yes"/>
      <point x="434" y="861" type="line" smooth="yes"/>
      <point x="434" y="906"/>
      <point x="416" y="924"/>
      <point x="371" y="924" type="curve" smooth="yes"/>
      <point x="247" y="924" type="line" smooth="yes"/>
      <point x="202" y="924"/>
      <point x="184" y="906"/>
      <point x="184" y="861" type="curve" smooth="yes"/>
      <point x="184" y="-325" type="line" smooth="yes"/>
      <point x="184" y="-370"/>
      <point x="202" y="-388"/>
      <point x="247" y="-388" type="curve" smooth="yes"/>
      <point x="371" y="-388" type="line" smooth="yes"/>
      <point x="416" y="-388"/>
      <point x="434" y="-370"/>
      <point x="434" y="-325" type="curve" smooth="yes"/>
      <point x="434" y="-12" type="line"/>
      <point x="457" y="-18"/>
      <point x="481" y="-22"/>
      <point x="506" y="-22" type="curve" smooth="yes"/>
      <point x="643" y="-22"/>
      <point x="761" y="57"/>
      <point x="846" y="178" type="curve"/>
      <point x="846" y="63" type="line" smooth="yes"/>
      <point x="846" y="18"/>
      <point x="864" y="0"/>
      <point x="909" y="0" type="curve" smooth="yes"/>
      <point x="993" y="0" type="line" smooth="yes"/>
      <point x="1038" y="0"/>
      <point x="1056" y="18"/>
      <point x="1056" y="63" type="curve" smooth="yes"/>
      <point x="1056" y="861" type="line" smooth="yes"/>
      <point x="1056" y="906"/>
      <point x="1038" y="924"/>
      <point x="993" y="924" type="curve" smooth="yes"/>
    </contour>
  </outline>
</glyph>
<glyph name="quoteright" format="1">
  <advance width="1228"/>
  <unicode hex="2019"/>
  <outline>
    <contour>
      <point x="556" y="1269" type="line" smooth="yes"/>
      <point x="528" y="1269"/>
      <point x="509" y="1255"/>
      <point x="504" y="1229" type="curve" smooth="yes"/>
      <point x="414" y="757" type="line" smooth="yes"/>
      <point x="402" y="695"/>
      <point x="428" y="671"/>
      <point x="494" y="671" type="curve" smooth="yes"/>
      <point x="560" y="671"/>
      <point x="598" y="689"/>
      <point x="620" y="739" type="curve" smooth="yes"/>
      <point x="827" y="1206" type="line" smooth="yes"/>
      <point x="843" y="1242"/>
      <point x="832" y="1269"/>
      <point x="799" y="1269" type="curve" smooth="yes"/>
    </contour>
  </outline>
</glyph>
<glyph name="dagger" format="1">
  <advance width="1228"/>
  <unicode hex="2020"/>
  <outline>
    <contour>
      <point x="519" y="1209"/>
      <point x="501" y="1191"/>
      <point x="501" y="1146" type="curve" smooth="yes"/>
      <point x="501" y="924" type="line"/>
      <point x="313" y="924" type="line" smooth="yes"/>
      <point x="268" y="924"/>
      <point x="250" y="906"/>
      <point x="250" y="811" type="curve" smooth="yes"/>
      <point x="250" y="716"/>
      <point x="268" y="699"/>
      <point x="313" y="699" type="curve" smooth="yes"/>
      <point x="501" y="699" type="line"/>
      <point x="501" y="311" type="line" smooth="yes"/>
      <point x="501" y="266"/>
      <point x="519" y="248"/>
      <point x="614" y="248" type="curve" smooth="yes"/>
      <point x="709" y="248"/>
      <point x="726" y="266"/>
      <point x="726" y="311" type="curve" smooth="yes"/>
      <point x="726" y="699" type="line"/>
      <point x="915" y="699" type="line" smooth="yes"/>
      <point x="960" y="699"/>
      <point x="978" y="716"/>
      <point x="978" y="811" type="curve" smooth="yes"/>
      <point x="978" y="906"/>
      <point x="960" y="924"/>
      <point x="915" y="924" type="curve" smooth="yes"/>
      <point x="726" y="924" type="line"/>
      <point x="726" y="1146" type="line" smooth="yes"/>
      <point x="726" y="1191"/>
      <point x="709" y="1209"/>
      <point x="614" y="1209" type="curve" smooth="yes"/>
    </contour>
  </outline>
</glyph>
<glyph name="bullet" format="1">
  <advance width="1228"/>
  <unicode hex="2022"/>
  <outline>
    <contour>
      <point x="435" y="858"/>
      <point x="359" y="827"/>
      <point x="359" y="750" type="curve" smooth="yes"/>
      <point x="359" y="418" type="line" smooth="yes"/>
      <point x="359" y="341"/>
      <point x="435" y="310"/>
      <point x="614" y="310" type="curve" smooth="yes"/>
      <point x="793" y="310"/>
      <point x="869" y="341"/>
      <point x="869" y="418" type="curve" smooth="yes"/>
      <point x="869" y="750" type="line" smooth="yes"/>
      <point x="869" y="827"/>
      <point x="793" y="858"/>
      <point x="614" y="858" type="curve" smooth="yes"/>
    </contour>
  </outline>
</glyph>
<glyph name="ellipsis" format="1">
  <advance width="1228"/>
  <unicode hex="2026"/>
  <outline>
    <contour>
      <point x="926" y="290"/>
      <point x="889" y="272"/>
      <point x="889" y="227" type="curve" smooth="yes"/>
      <point x="889" y="53" type="line" smooth="yes"/>
      <point x="889" y="8"/>
      <point x="926" y="-10"/>
      <point x="1014" y="-10" type="curve" smooth="yes"/>
      <point x="1102" y="-10"/>
      <point x="1139" y="8"/>
      <point x="1139" y="53" type="curve" smooth="yes"/>
      <point x="1139" y="227" type="line" smooth="yes"/>
      <point x="1139" y="272"/>
      <point x="1102" y="290"/>
      <point x="1014" y="290" type="curve" smooth="yes"/>
    </contour>
    <contour>
      <point x="126" y="290"/>
      <point x="89" y="272"/>
      <point x="89" y="227" type="curve" smooth="yes"/>
      <point x="89" y="53" type="line" smooth="yes"/>
      <point x="89" y="8"/>
      <point x="126" y="-10"/>
      <point x="214" y="-10" type="curve" smooth="yes"/>
      <point x="302" y="-10"/>
      <point x="339" y="8"/>
      <point x="339" y="53" type="curve" smooth="yes"/>
      <point x="339" y="227" type="line" smooth="yes"/>
      <point x="339" y="272"/>
      <point x="302" y="290"/>
      <point x="214" y="290" type="curve" smooth="yes"/>
    </contour>
    <contour>
      <point x="526" y="290"/>
      <point x="489" y="272"/>
      <point x="489" y="227" type="curve" smooth="yes"/>
      <point x="489" y="53" type="line" smooth="yes"/>
      <point x="489" y="8"/>
      <point x="526" y="-10"/>
      <point x="614" y="-10" type="curve" smooth="yes"/>
      <point x="702" y="-10"/>
      <point x="739" y="8"/>
      <point x="739" y="53" type="curve" smooth="yes"/>
      <point x="739" y="227" type="line" smooth="yes"/>
      <point x="739" y="272"/>
      <point x="702" y="290"/>
      <point x="614" y="290" type="curve" smooth="yes"/>
    </contour>
  </outline>
</glyph>
<glyph name="minute" format="1">
  <advance width="1228"/>
  <unicode hex="2032"/>
  <outline>
    <contour>
      <point x="664" y="1219"/>
      <point x="615" y="1206"/>
      <point x="594" y="1164" type="curve" smooth="yes"/>
      <point x="393" y="758" type="line" smooth="yes"/>
      <point x="376" y="723"/>
      <point x="391" y="697"/>
      <point x="433" y="680" type="curve" smooth="yes"/>
      <point x="476" y="663"/>
      <point x="512" y="669"/>
      <point x="535" y="694" type="curve" smooth="yes"/>
      <point x="876" y="1075" type="line" smooth="yes"/>
      <point x="900" y="1102"/>
      <point x="887" y="1152"/>
      <point x="777" y="1185" type="curve" smooth="yes"/>
    </contour>
  </outline>
</glyph>
<glyph name="fraction" format="1">
  <advance width="1228"/>
  <unicode hex="2044"/>
  <outline>
    <contour>
      <point x="105" y="329" type="line" smooth="yes"/>
      <point x="77" y="313"/>
      <point x="79" y="286"/>
      <point x="109" y="240" type="curve" smooth="yes"/>
      <point x="139" y="194"/>
      <point x="162" y="188"/>
      <point x="185" y="200" type="curve" smooth="yes"/>
      <point x="1122" y="721" type="line" smooth="yes"/>
      <point x="1150" y="737"/>
      <point x="1148" y="764"/>
      <point x="1118" y="810" type="curve" smooth="yes"/>
      <point x="1088" y="856"/>
      <point x="1065" y="862"/>
      <point x="1042" y="850" type="curve" smooth="yes"/>
    </contour>
  </outline>
</glyph>
<glyph name="franc" format="1">
  <advance width="1228"/>
  <unicode hex="20A3"/>
  <outline>
    <contour>
      <point x="123" y="1187" type="line" smooth="yes"/>
      <point x="78" y="1187"/>
      <point x="60" y="1169"/>
      <point x="60" y="1084" type="curve" smooth="yes"/>
      <point x="60" y="999"/>
      <point x="78" y="982"/>
      <point x="123" y="982" type="curve" smooth="yes"/>
      <point x="250" y="982" type="line"/>
      <point x="250" y="205" type="line"/>
      <point x="123" y="205" type="line" smooth="yes"/>
      <point x="78" y="205"/>
      <point x="60" y="187"/>
      <point x="60" y="102" type="curve" smooth="yes"/>
      <point x="60" y="17"/>
      <point x="78" y="0"/>
      <point x="123" y="0" type="curve" smooth="yes"/>
      <point x="717" y="0" type="line" smooth="yes"/>
      <point x="762" y="0"/>
      <point x="780" y="17"/>
      <point x="780" y="102" type="curve" smooth="yes"/>
      <point x="780" y="187"/>
      <point x="762" y="205"/>
      <point x="717" y="205" type="curve" smooth="yes"/>
      <point x="500" y="205" type="line"/>
      <point x="500" y="512" type="line"/>
      <point x="804" y="512" type="line" smooth="yes"/>
      <point x="849" y="512"/>
      <point x="867" y="534"/>
      <point x="867" y="619" type="curve" smooth="yes"/>
      <point x="867" y="704"/>
      <point x="849" y="727"/>
      <point x="804" y="727" type="curve" smooth="yes"/>
      <point x="500" y="727" type="line"/>
      <point x="500" y="972" type="line"/>
      <point x="890" y="972" type="line"/>
      <point x="890" y="870" type="line" smooth="yes"/>
      <point x="890" y="825"/>
      <point x="913" y="807"/>
      <point x="998" y="807" type="curve" smooth="yes"/>
      <point x="1083" y="807"/>
      <point x="1120" y="825"/>
      <point x="1120" y="870" type="curve" smooth="yes"/>
      <point x="1120" y="1122" type="line" smooth="yes"/>
      <point x="1120" y="1168"/>
      <point x="1101" y="1187"/>
      <point x="1055" y="1187" type="curve" smooth="yes"/>
    </contour>
    <contour>
      <point x="93" y="424" type="line" smooth="yes"/>
      <point x="48" y="424"/>
      <point x="30" y="406"/>
      <point x="30" y="356" type="curve" smooth="yes"/>
      <point x="30" y="306"/>
      <point x="48" y="288"/>
      <point x="93" y="288" type="curve" smooth="yes"/>
      <point x="885" y="288" type="line" smooth="yes"/>
      <point x="930" y="288"/>
      <point x="948" y="306"/>
      <point x="948" y="356" type="curve" smooth="yes"/>
      <point x="948" y="406"/>
      <point x="930" y="424"/>
      <point x="885" y="424" type="curve" smooth="yes"/>
    </contour>
  </outline>
</glyph>
<glyph name="won" format="1">
  <advance width="1228"/>
  <unicode hex="20A9"/>
  <outline>
    <contour>
      <point x="33" y="764" type="line" smooth="yes"/>
      <point x="-12" y="764"/>
      <point x="-30" y="750"/>
      <point x="-30" y="671" type="curve" smooth="yes"/>
      <point x="-30" y="593"/>
      <point x="-12" y="579"/>
      <point x="33" y="579" type="curve" smooth="yes"/>
      <point x="541" y="579" type="line"/>
      <point x="607" y="579" type="line"/>
      <point x="679" y="579" type="line"/>
      <point x="1195" y="579" type="line" smooth="yes"/>
      <point x="1240" y="579"/>
      <point x="1258" y="593"/>
      <point x="1258" y="671" type="curve" smooth="yes"/>
      <point x="1258" y="750"/>
      <point x="1240" y="764"/>
      <point x="1195" y="764" type="curve" smooth="yes"/>
    </contour>
    <component base="W"/>
  </outline>
</glyph>
<glyph name="product" format="1">
  <advance width="1228"/>
  <unicode hex="220F"/>
  <outline>
    <contour>
      <point x="223" y="1187" type="line" smooth="yes"/>
      <point x="178" y="1187"/>
      <point x="160" y="1169"/>
      <point x="160" y="1124" type="curve" smooth="yes"/>
      <point x="160" y="63" type="line" smooth="yes"/>
      <point x="160" y="18"/>
      <point x="178" y="0"/>
      <point x="223" y="0" type="curve" smooth="yes"/>
      <point x="347" y="0" type="line" smooth="yes"/>
      <point x="392" y="0"/>
      <point x="410" y="18"/>
      <point x="410" y="63" type="curve" smooth="yes"/>
      <point x="410" y="952" type="line"/>
      <point x="818" y="952" type="line"/>
      <point x="818" y="63" type="line" smooth="yes"/>
      <point x="818" y="18"/>
      <point x="836" y="0"/>
      <point x="881" y="0" type="curve" smooth="yes"/>
      <point x="1005" y="0" type="line" smooth="yes"/>
      <point x="1050" y="0"/>
      <point x="1068" y="18"/>
      <point x="1068" y="63" type="curve" smooth="yes"/>
      <point x="1068" y="1124" type="line" smooth="yes"/>
      <point x="1068" y="1169"/>
      <point x="1050" y="1187"/>
      <point x="1005" y="1187" type="curve" smooth="yes"/>
    </contour>
  </outline>
</glyph>
<glyph name="summation" format="1">
  <advance width="1228"/>
  <unicode hex="2211"/>
  <outline>
    <contour>
      <point x="253" y="1187" type="line" smooth="yes"/>
      <point x="208" y="1187"/>
      <point x="190" y="1169"/>
      <point x="190" y="1084" type="curve" smooth="yes"/>
      <point x="190" y="1050"/>
      <point x="193" y="1026"/>
      <point x="205" y="1011" type="curve" smooth="yes"/>
      <point x="530" y="607" type="line"/>
      <point x="185" y="176" type="line" smooth="yes"/>
      <point x="173" y="161"/>
      <point x="170" y="137"/>
      <point x="170" y="103" type="curve" smooth="yes"/>
      <point x="170" y="18"/>
      <point x="188" y="0"/>
      <point x="233" y="0" type="curve" smooth="yes"/>
      <point x="987" y="0" type="line" smooth="yes"/>
      <point x="1032" y="0"/>
      <point x="1050" y="22"/>
      <point x="1050" y="117" type="curve" smooth="yes"/>
      <point x="1050" y="212"/>
      <point x="1032" y="235"/>
      <point x="987" y="235" type="curve" smooth="yes"/>
      <point x="525" y="235" type="line"/>
      <point x="800" y="577" type="line" smooth="yes"/>
      <point x="814" y="595"/>
      <point x="815" y="620"/>
      <point x="800" y="638" type="curve" smooth="yes"/>
      <point x="546" y="952" type="line"/>
      <point x="967" y="952" type="line" smooth="yes"/>
      <point x="1012" y="952"/>
      <point x="1030" y="974"/>
      <point x="1030" y="1069" type="curve" smooth="yes"/>
      <point x="1030" y="1164"/>
      <point x="1012" y="1187"/>
      <point x="967" y="1187" type="curve" smooth="yes"/>
    </contour>
    <contour>
      <point x="603" y="-837" type="line"/>
      <point x="603" y="-838" type="line"/>
      <point x="604" y="-838" type="line"/>
      <point x="604" y="-837" type="line"/>
    </contour>
    <contour>
      <point x="603" y="1797" type="line"/>
      <point x="603" y="1796" type="line"/>
      <point x="604" y="1796" type="line"/>
      <point x="604" y="1797" type="line"/>
    </contour>
  </outline>
</glyph>
<glyph name="infinity" format="1">
  <advance width="1228"/>
  <unicode hex="221E"/>
  <outline>
    <contour>
      <point x="777" y="891"/>
      <point x="687" y="811"/>
      <point x="614" y="721" type="curve"/>
      <point x="540" y="811"/>
      <point x="451" y="891"/>
      <point x="308" y="891" type="curve" smooth="yes"/>
      <point x="141" y="891"/>
      <point x="18" y="758"/>
      <point x="18" y="582" type="curve" smooth="yes"/>
      <point x="18" y="406"/>
      <point x="141" y="273"/>
      <point x="308" y="273" type="curve" smooth="yes"/>
      <point x="451" y="273"/>
      <point x="540" y="352"/>
      <point x="614" y="443" type="curve"/>
      <point x="687" y="352"/>
      <point x="777" y="273"/>
      <point x="920" y="273" type="curve" smooth="yes"/>
      <point x="1087" y="273"/>
      <point x="1210" y="406"/>
      <point x="1210" y="582" type="curve" smooth="yes"/>
      <point x="1210" y="758"/>
      <point x="1087" y="891"/>
      <point x="920" y="891" type="curve" smooth="yes"/>
    </contour>
    <contour>
      <point x="398" y="697"/>
      <point x="454" y="647"/>
      <point x="507" y="582" type="curve"/>
      <point x="454" y="516"/>
      <point x="398" y="467"/>
      <point x="321" y="467" type="curve" smooth="yes"/>
      <point x="243" y="467"/>
      <point x="196" y="519"/>
      <point x="196" y="582" type="curve" smooth="yes"/>
      <point x="196" y="645"/>
      <point x="243" y="697"/>
      <point x="321" y="697" type="curve" smooth="yes"/>
    </contour>
    <contour>
      <point x="985" y="697"/>
      <point x="1032" y="645"/>
      <point x="1032" y="582" type="curve" smooth="yes"/>
      <point x="1032" y="519"/>
      <point x="985" y="467"/>
      <point x="907" y="467" type="curve" smooth="yes"/>
      <point x="830" y="467"/>
      <point x="774" y="516"/>
      <point x="720" y="582" type="curve"/>
      <point x="774" y="647"/>
      <point x="830" y="697"/>
      <point x="907" y="697" type="curve" smooth="yes"/>
    </contour>
  </outline>
</glyph>
<glyph name="integral" format="1">
  <advance width="1228"/>
  <unicode hex="222B"/>
  <outline>
    <contour>
      <point x="614" y="1517"/>
      <point x="489" y="1386"/>
      <point x="489" y="1137" type="curve" smooth="yes"/>
      <point x="489" y="-17" type="line" smooth="yes"/>
      <point x="489" y="-132"/>
      <point x="442" y="-183"/>
      <point x="360" y="-183" type="curve" smooth="yes"/>
      <point x="292" y="-183"/>
      <point x="212" y="-159"/>
      <point x="131" y="-121" type="curve" smooth="yes"/>
      <point x="75" y="-95"/>
      <point x="40" y="-138"/>
      <point x="19" y="-194" type="curve" smooth="yes"/>
      <point x="0" y="-245"/>
      <point x="-6" y="-293"/>
      <point x="47" y="-322" type="curve" smooth="yes"/>
      <point x="143" y="-375"/>
      <point x="267" y="-410"/>
      <point x="382" y="-410" type="curve" smooth="yes"/>
      <point x="614" y="-410"/>
      <point x="739" y="-279"/>
      <point x="739" y="-30" type="curve" smooth="yes"/>
      <point x="739" y="1124" type="line" smooth="yes"/>
      <point x="739" y="1239"/>
      <point x="786" y="1290"/>
      <point x="868" y="1290" type="curve" smooth="yes"/>
      <point x="936" y="1290"/>
      <point x="1015" y="1266"/>
      <point x="1097" y="1228" type="curve" smooth="yes"/>
      <point x="1153" y="1202"/>
      <point x="1188" y="1245"/>
      <point x="1209" y="1301" type="curve" smooth="yes"/>
      <point x="1228" y="1352"/>
      <point x="1234" y="1400"/>
      <point x="1181" y="1429" type="curve" smooth="yes"/>
      <point x="1084" y="1482"/>
      <point x="961" y="1517"/>
      <point x="846" y="1517" type="curve" smooth="yes"/>
    </contour>
  </outline>
</glyph>
<glyph name="greaterequal" format="1">
  <advance width="1228"/>
  <unicode hex="2265"/>
  <outline>
    <contour>
      <point x="241" y="1157"/>
      <point x="212" y="1136"/>
      <point x="181" y="1051" type="curve" smooth="yes"/>
      <point x="150" y="967"/>
      <point x="162" y="941"/>
      <point x="205" y="925" type="curve" smooth="yes"/>
      <point x="697" y="745" type="line"/>
      <point x="205" y="565" type="line" smooth="yes"/>
      <point x="162" y="549"/>
      <point x="150" y="523"/>
      <point x="181" y="439" type="curve" smooth="yes"/>
      <point x="212" y="354"/>
      <point x="241" y="333"/>
      <point x="283" y="351" type="curve" smooth="yes"/>
      <point x="1012" y="651" type="line" smooth="yes"/>
      <point x="1045" y="665"/>
      <point x="1058" y="688"/>
      <point x="1058" y="745" type="curve" smooth="yes"/>
      <point x="1058" y="802"/>
      <point x="1045" y="825"/>
      <point x="1012" y="839" type="curve" smooth="yes"/>
      <point x="283" y="1139" type="line" smooth="yes"/>
    </contour>
    <contour>
      <point x="233" y="225" type="line"/>
      <point x="188" y="225"/>
      <point x="170" y="207"/>
      <point x="170" y="112" type="curve" smooth="yes"/>
      <point x="170" y="17"/>
      <point x="188" y="0"/>
      <point x="233" y="0" type="curve" smooth="yes"/>
      <point x="995" y="0" type="line" smooth="yes"/>
      <point x="1040" y="0"/>
      <point x="1058" y="17"/>
      <point x="1058" y="112" type="curve" smooth="yes"/>
      <point x="1058" y="207"/>
      <point x="1040" y="225"/>
      <point x="995" y="225" type="curve" smooth="yes"/>
    </contour>
  </outline>
</glyph>
<glyph name="lozenge" format="1">
  <advance width="1228"/>
  <unicode hex="25CA"/>
  <outline>
    <contour>
      <point x="542" y="1209"/>
      <point x="505" y="1191"/>
      <point x="478" y="1144" type="curve" smooth="yes"/>
      <point x="183" y="623" type="line" smooth="yes"/>
      <point x="172" y="603"/>
      <point x="172" y="583"/>
      <point x="183" y="563" type="curve" smooth="yes"/>
      <point x="478" y="43" type="line" smooth="yes"/>
      <point x="505" y="-4"/>
      <point x="542" y="-22"/>
      <point x="614" y="-22" type="curve" smooth="yes"/>
      <point x="686" y="-22"/>
      <point x="724" y="-4"/>
      <point x="750" y="43" type="curve" smooth="yes"/>
      <point x="1044" y="563" type="line" smooth="yes"/>
      <point x="1055" y="583"/>
      <point x="1055" y="603"/>
      <point x="1044" y="623" type="curve" smooth="yes"/>
      <point x="750" y="1144" type="line" smooth="yes"/>
      <point x="724" y="1191"/>
      <point x="686" y="1209"/>
      <point x="614" y="1209" type="curve" smooth="yes"/>
    </contour>
    <contour>
      <point x="800" y="593" type="line"/>
      <point x="614" y="258" type="line"/>
      <point x="428" y="593" type="line"/>
      <point x="614" y="929" type="line"/>
    </contour>
  </outline>
</glyph>
<glyph name="caron.alt" format="1">
  <advance width="1228"/>
  <outline>
    <contour>
      <point x="347" y="1312" type="line" smooth="yes"/>
      <point x="324" y="1312"/>
      <point x="309" y="1300"/>
      <point x="304" y="1279" type="curve" smooth="yes"/>
      <point x="219" y="888" type="line" smooth="yes"/>
      <point x="208" y="836"/>
      <point x="236" y="817"/>
      <point x="301" y="817" type="curve" smooth="yes"/>
      <point x="365" y="817"/>
      <point x="403" y="830"/>
      <point x="420" y="873" type="curve" smooth="yes"/>
      <point x="571" y="1260" type="line" smooth="yes"/>
      <point x="582" y="1289"/>
      <point x="575" y="1312"/>
      <point x="548" y="1312" type="curve" smooth="yes"/>
    </contour>
  </outline>
</glyph>
<glyph name="ellipsis.alt3" format="1">
  <advance width="1228"/>
  <outline>
    <contour>
      <point x="1417" y="262"/>
      <point x="1353" y="198"/>
      <point x="1353" y="120" type="curve" smooth="yes"/>
      <point x="1353" y="42"/>
      <point x="1417" y="-22"/>
      <point x="1495" y="-22" type="curve" smooth="yes"/>
      <point x="1573" y="-22"/>
      <point x="1637" y="42"/>
      <point x="1637" y="120" type="curve" smooth="yes"/>
      <point x="1637" y="198"/>
      <point x="1573" y="262"/>
      <point x="1495" y="262" type="curve" smooth="yes"/>
    </contour>
    <contour>
      <point x="335" y="262"/>
      <point x="271" y="198"/>
      <point x="271" y="120" type="curve" smooth="yes"/>
      <point x="271" y="42"/>
      <point x="335" y="-22"/>
      <point x="413" y="-22" type="curve" smooth="yes"/>
      <point x="491" y="-22"/>
      <point x="555" y="42"/>
      <point x="555" y="120" type="curve" smooth="yes"/>
      <point x="555" y="198"/>
      <point x="491" y="262"/>
      <point x="413" y="262" type="curve" smooth="yes"/>
    </contour>
    <contour>
      <point x="876" y="262"/>
      <point x="812" y="198"/>
      <point x="812" y="120" type="curve" smooth="yes"/>
      <point x="812" y="42"/>
      <point x="876" y="-22"/>
      <point x="954" y="-22" type="curve" smooth="yes"/>
      <point x="1032" y="-22"/>
      <point x="1096" y="42"/>
      <point x="1096" y="120" type="curve" smooth="yes"/>
      <point x="1096" y="198"/>
      <point x="1032" y="262"/>
      <point x="954" y="262" type="curve" smooth="yes"/>
    </contour>
  </outline>
</glyph>
<glyph name="emdash.alt2" format="1">
  <advance width="1228"/>
  <outline>
    <contour>
      <point x="47" y="695" type="line" smooth="yes"/>
      <point x="2" y="695"/>
      <point x="-16" y="677"/>
      <point x="-16" y="582" type="curve" smooth="yes"/>
      <point x="-16" y="487"/>
      <point x="2" y="470"/>
      <point x="47" y="470" type="curve" smooth="yes"/>
      <point x="2409" y="470" type="line" smooth="yes"/>
      <point x="2454" y="470"/>
      <point x="2472" y="487"/>
      <point x="2472" y="582" type="curve" smooth="yes"/>
      <point x="2472" y="677"/>
      <point x="2454" y="695"/>
      <point x="2409" y="695" type="curve" smooth="yes"/>
    </contour>
  </outline>
</glyph>
<glyph name="emdash.alt3" format="1">
  <advance width="1228"/>
  <outline>
    <contour>
      <point x="347" y="695" type="line" smooth="yes"/>
      <point x="302" y="695"/>
      <point x="284" y="677"/>
      <point x="284" y="582" type="curve" smooth="yes"/>
      <point x="284" y="487"/>
      <point x="302" y="470"/>
      <point x="347" y="470" type="curve" smooth="yes"/>
      <point x="2109" y="470" type="line" smooth="yes"/>
      <point x="2154" y="470"/>
      <point x="2172" y="487"/>
      <point x="2172" y="582" type="curve" smooth="yes"/>
      <point x="2172" y="677"/>
      <point x="2154" y="695"/>
      <point x="2109" y="695" type="curve" smooth="yes"/>
    </contour>
  </outline>
</glyph>
<glyph name="emdash.alt4" format="1">
  <advance width="1228"/>
  <outline>
    <contour>
      <point x="-167" y="695" type="line" smooth="yes"/>
      <point x="-212" y="695"/>
      <point x="-230" y="677"/>
      <point x="-230" y="582" type="curve" smooth="yes"/>
      <point x="-230" y="487"/>
      <point x="-212" y="470"/>
      <point x="-167" y="470" type="curve" smooth="yes"/>
      <point x="1395" y="470" type="line" smooth="yes"/>
      <point x="1440" y="470"/>
      <point x="1458" y="487"/>
      <point x="1458" y="582" type="curve" smooth="yes"/>
      <point x="1458" y="677"/>
      <point x="1440" y="695"/>
      <point x="1395" y="695" type="curve" smooth="yes"/>
    </contour>
  </outline>
</glyph>
<glyph name="hyphen.alt" format="1">
  <advance width="1228"/>
  <outline>
    <contour>
      <point x="323" y="719" type="line" smooth="yes"/>
      <point x="278" y="719"/>
      <point x="260" y="691"/>
      <point x="260" y="586" type="curve" smooth="yes"/>
      <point x="260" y="481"/>
      <point x="278" y="454"/>
      <point x="323" y="454" type="curve" smooth="yes"/>
      <point x="905" y="454" type="line" smooth="yes"/>
      <point x="950" y="454"/>
      <point x="968" y="481"/>
      <point x="968" y="586" type="curve" smooth="yes"/>
      <point x="968" y="691"/>
      <point x="950" y="719"/>
      <point x="905" y="719" type="curve" smooth="yes"/>
    </contour>
  </outline>
</glyph>
<glyph name="period.squat" format="1">
  <advance width="1228"/>
  <outline>
    <contour>
      <point x="498" y="330"/>
      <point x="449" y="312"/>
      <point x="449" y="267" type="curve" smooth="yes"/>
      <point x="449" y="53" type="line" smooth="yes"/>
      <point x="449" y="8"/>
      <point x="498" y="-10"/>
      <point x="614" y="-10" type="curve" smooth="yes"/>
      <point x="730" y="-10"/>
      <point x="779" y="8"/>
      <point x="779" y="53" type="curve" smooth="yes"/>
      <point x="779" y="267" type="line" smooth="yes"/>
      <point x="779" y="312"/>
      <point x="730" y="330"/>
      <point x="614" y="330" type="curve" smooth="yes"/>
    </contour>
  </outline>
</glyph>
<glyph name="tilde.case" format="1">
  <advance width="1228"/>
  <outline>
    <component base="tilde" yOffset="270"/>
    <contour>
      <point x="614" y="1187" type="move" name="_top"/>
    </contour>
  </outline>
</glyph>
